<svg id="svg" version="1.1" xmlns="http://www.w3.org/2000/svg" xmlns:xlink="http://www.w3.org/1999/xlink" width="400" height="398.59154929577466" viewBox="0, 0, 400,398.59154929577466"><g id="svgg"><path id="path0" d="M191.426 113.245 C 190.000 113.393,188.442 113.727,187.962 113.986 C 187.483 114.245,186.676 114.462,186.168 114.469 C 185.660 114.476,184.896 114.745,184.470 115.068 C 184.044 115.390,183.307 115.653,182.831 115.653 C 181.853 115.653,174.962 119.079,171.159 121.456 C 167.152 123.960,156.331 135.515,156.331 137.289 C 156.331 137.605,155.972 138.187,155.533 138.584 C 155.095 138.981,154.736 139.506,154.736 139.750 C 154.736 139.994,154.287 140.854,153.739 141.661 C 153.190 142.468,152.739 143.452,152.736 143.847 C 152.729 144.665,151.950 146.950,151.252 148.195 C 149.896 150.619,148.441 160.456,148.662 165.703 C 148.840 169.917,150.559 178.869,151.380 179.860 C 151.653 180.189,152.266 181.625,152.743 183.051 C 153.935 186.613,156.372 191.440,157.982 193.428 C 158.719 194.339,160.000 195.920,160.829 196.943 C 162.819 199.398,164.337 200.976,165.880 202.193 C 166.575 202.742,167.717 203.660,168.417 204.233 C 169.118 204.807,170.095 205.402,170.588 205.556 C 171.082 205.710,171.486 206.002,171.486 206.203 C 171.486 206.405,172.787 207.223,174.377 208.020 C 175.967 208.818,177.412 209.717,177.587 210.019 C 177.763 210.321,178.318 210.568,178.821 210.568 C 179.325 210.568,180.046 210.910,180.424 211.328 C 180.802 211.746,181.862 212.182,182.779 212.296 C 183.696 212.411,186.152 212.999,188.235 213.603 C 197.579 216.309,199.402 215.659,199.402 209.619 C 199.402 203.964,199.319 204.053,205.325 203.216 C 223.463 200.687,237.413 187.058,239.640 169.691 C 239.893 167.717,240.184 165.453,240.286 164.660 C 240.793 160.712,238.938 151.895,236.443 146.390 C 231.068 134.534,218.486 125.277,205.996 123.989 C 199.406 123.309,199.402 123.305,199.402 117.386 L 199.402 112.861 196.710 112.918 C 195.229 112.949,192.851 113.096,191.426 113.245 M137.524 280.723 C 135.885 281.256,134.080 282.425,133.821 283.120 C 133.692 283.466,133.323 284.197,133.001 284.746 C 132.082 286.309,132.127 313.356,133.052 315.305 C 133.904 317.101,135.140 318.028,137.793 318.863 C 140.498 319.714,140.767 320.039,141.657 323.545 C 142.382 326.397,142.870 327.109,143.968 326.909 C 144.705 326.776,144.683 324.775,143.918 322.293 C 143.328 320.380,144.518 318.644,146.419 318.644 C 147.792 318.644,150.147 316.633,150.897 314.821 C 151.516 313.322,151.595 311.615,151.584 299.817 C 151.570 284.025,151.532 283.846,147.625 281.243 C 146.553 280.529,139.273 280.154,137.524 280.723 M234.253 280.633 C 233.790 280.724,232.732 281.421,231.902 282.181 C 229.645 284.248,228.710 284.347,228.074 282.586 C 226.686 278.749,226.520 280.616,226.520 300.083 C 226.520 319.435,226.507 319.323,228.726 318.312 L 229.711 317.864 229.711 303.283 C 229.711 286.739,229.718 286.699,232.972 284.342 C 234.356 283.339,234.989 283.151,236.975 283.151 C 241.953 283.151,241.831 282.700,242.074 302.051 C 242.289 319.250,242.349 319.672,244.367 318.399 C 245.105 317.934,245.667 291.222,245.049 285.992 C 244.529 281.593,240.228 279.458,234.253 280.633 M164.008 281.014 C 163.349 281.290,163.274 318.052,163.931 318.459 C 164.163 318.602,164.791 318.609,165.327 318.475 L 166.301 318.230 166.301 310.323 C 166.301 300.346,165.773 301.033,173.324 301.185 L 178.863 301.296 179.083 309.870 C 179.331 319.556,179.206 318.644,180.285 318.644 C 182.778 318.644,182.652 319.660,182.652 299.519 L 182.652 281.220 181.416 280.948 C 179.383 280.502,179.280 280.884,179.063 289.650 L 178.863 297.707 173.280 297.806 C 165.914 297.938,166.540 298.722,166.301 289.048 C 166.088 280.409,166.021 280.173,164.008 281.014 M195.813 281.049 C 195.484 281.174,195.083 281.474,194.921 281.715 C 194.457 282.410,194.560 312.645,195.033 314.345 C 196.526 319.720,203.938 321.139,208.949 317.008 C 210.709 315.558,211.128 315.563,212.227 317.049 C 212.713 317.707,213.257 318.245,213.435 318.245 C 213.613 318.245,213.759 309.921,213.759 299.747 L 213.759 281.250 212.897 281.024 C 210.536 280.407,210.568 280.192,210.568 296.299 C 210.568 312.093,210.532 312.402,208.466 314.407 C 205.746 317.046,202.516 317.724,200.176 316.147 C 198.281 314.870,198.289 314.951,198.245 297.208 C 198.222 287.755,198.055 281.157,197.839 281.157 C 197.638 281.157,197.234 281.081,196.942 280.989 C 196.650 280.896,196.142 280.923,195.813 281.049 M256.620 281.655 C 256.496 282.149,256.448 289.821,256.513 298.704 L 256.630 314.855 257.627 316.330 C 260.396 320.425,266.604 320.439,269.378 316.357 C 270.624 314.523,270.945 306.470,269.790 306.026 C 267.791 305.259,267.333 306.025,267.081 310.561 C 266.748 316.560,264.410 318.711,261.305 315.875 L 260.020 314.701 260.020 299.803 C 260.020 282.611,259.662 283.948,264.259 283.948 C 267.623 283.948,268.794 283.475,268.794 282.115 C 268.794 280.455,257.032 280.011,256.620 281.655 M146.532 284.494 L 147.956 285.837 147.956 299.759 C 147.956 315.389,148.041 314.910,145.012 316.286 C 141.757 317.764,137.524 316.766,136.118 314.189 C 135.227 312.555,134.789 290.408,135.584 287.158 C 136.604 282.989,143.228 281.377,146.532 284.494 " stroke="none" fill="#bcebe6" fill-rule="evenodd"></path><path id="path1" d="M192.423 84.236 C 185.700 85.002,176.179 87.118,173.817 88.371 C 173.235 88.680,172.483 88.933,172.145 88.933 C 171.808 88.933,170.008 89.651,168.144 90.528 C 166.280 91.406,164.564 92.124,164.331 92.124 C 164.099 92.124,163.908 92.303,163.908 92.522 C 163.908 92.742,163.715 92.921,163.479 92.921 C 162.970 92.921,158.148 95.723,155.334 97.654 C 148.592 102.280,141.492 108.833,137.345 114.257 C 135.721 116.381,132.403 121.186,132.403 121.414 C 132.403 121.514,131.871 122.384,131.220 123.347 C 130.570 124.311,129.852 125.531,129.626 126.059 C 129.400 126.587,129.040 127.288,128.827 127.617 C 127.165 130.188,123.218 140.692,122.608 144.167 C 122.455 145.045,122.188 145.943,122.015 146.163 C 121.842 146.382,121.510 148.177,121.277 150.151 C 121.044 152.124,120.673 154.905,120.454 156.331 C 119.966 159.507,119.953 166.328,120.427 170.090 C 121.582 179.251,121.831 180.525,123.779 187.238 C 124.430 189.482,127.104 196.182,127.597 196.803 C 127.774 197.026,128.052 197.645,128.216 198.178 C 129.855 203.508,140.586 217.669,147.029 223.003 C 153.123 228.049,155.110 229.476,160.455 232.653 C 164.213 234.887,167.988 236.630,173.480 238.669 C 181.625 241.693,198.592 244.319,200.120 242.792 C 200.455 242.457,200.598 240.263,200.598 235.482 L 200.598 228.650 205.284 228.204 C 213.398 227.432,217.738 226.378,224.925 223.437 C 226.866 222.643,229.870 221.181,230.110 220.915 C 230.219 220.792,230.892 220.457,231.605 220.168 C 232.318 219.880,232.901 219.526,232.901 219.381 C 232.901 219.236,233.395 218.896,233.998 218.624 C 236.034 217.706,237.288 216.908,237.288 216.529 C 237.288 216.321,237.487 216.152,237.729 216.152 C 239.141 216.152,247.389 208.323,251.150 203.414 C 252.085 202.194,253.117 200.846,253.443 200.417 C 253.770 199.989,254.038 199.406,254.038 199.121 C 254.038 198.837,254.187 198.604,254.369 198.604 C 254.552 198.604,254.955 198.111,255.266 197.507 C 255.577 196.904,255.938 196.321,256.069 196.211 C 256.345 195.980,257.119 194.520,258.604 191.426 C 259.183 190.219,259.918 188.756,260.237 188.174 C 260.556 187.592,260.819 186.874,260.820 186.579 C 260.821 186.283,261.074 185.560,261.381 184.972 C 261.688 184.384,262.055 183.307,262.197 182.579 C 262.339 181.852,262.696 180.628,262.990 179.860 C 265.658 172.887,265.661 154.196,262.995 147.159 C 262.704 146.391,262.360 145.108,262.230 144.307 C 262.099 143.507,261.728 142.632,261.405 142.364 C 261.082 142.096,260.818 141.495,260.819 141.028 C 260.821 140.311,258.758 135.581,257.578 133.599 C 257.383 133.270,257.003 132.552,256.735 132.004 C 256.467 131.456,256.151 130.917,256.032 130.808 C 255.913 130.698,255.599 130.115,255.334 129.511 C 255.069 128.908,254.669 128.415,254.445 128.415 C 254.221 128.415,254.038 128.173,254.038 127.878 C 254.038 127.583,253.679 127.017,253.240 126.620 C 252.802 126.223,252.443 125.695,252.443 125.446 C 252.443 125.197,251.770 124.247,250.947 123.336 C 250.125 122.425,249.182 121.282,248.853 120.798 C 248.524 120.313,247.838 119.541,247.328 119.082 C 246.818 118.624,245.203 117.101,243.739 115.699 C 242.275 114.297,240.623 112.860,240.068 112.507 C 239.513 112.154,237.875 111.012,236.428 109.970 C 234.981 108.928,233.595 108.076,233.349 108.076 C 233.103 108.076,232.901 107.908,232.901 107.703 C 232.901 107.498,232.273 107.103,231.505 106.825 C 230.738 106.547,230.110 106.196,230.110 106.045 C 230.110 105.893,229.616 105.646,229.013 105.496 C 228.410 105.345,227.647 104.992,227.318 104.711 C 226.989 104.430,226.361 104.096,225.922 103.968 C 225.484 103.841,223.868 103.263,222.333 102.684 C 216.208 100.375,208.964 98.908,203.672 98.905 L 200.565 98.903 200.617 92.095 C 200.687 82.982,200.978 83.261,192.423 84.236 M199.402 117.386 C 199.402 123.305,199.406 123.309,205.996 123.989 C 218.486 125.277,231.068 134.534,236.443 146.390 C 238.938 151.895,240.793 160.712,240.286 164.660 C 240.184 165.453,239.893 167.717,239.640 169.691 C 237.413 187.058,223.463 200.687,205.325 203.216 C 199.319 204.053,199.402 203.964,199.402 209.619 C 199.402 215.659,197.579 216.309,188.235 213.603 C 186.152 212.999,183.696 212.411,182.779 212.296 C 181.862 212.182,180.802 211.746,180.424 211.328 C 180.046 210.910,179.325 210.568,178.821 210.568 C 178.318 210.568,177.763 210.321,177.587 210.019 C 177.412 209.717,175.967 208.818,174.377 208.020 C 172.787 207.223,171.486 206.405,171.486 206.203 C 171.486 206.002,171.082 205.710,170.588 205.556 C 170.095 205.402,169.118 204.807,168.417 204.233 C 167.717 203.660,166.575 202.742,165.880 202.193 C 164.337 200.976,162.819 199.398,160.829 196.943 C 160.000 195.920,158.719 194.339,157.982 193.428 C 156.372 191.440,153.935 186.613,152.743 183.051 C 152.266 181.625,151.653 180.189,151.380 179.860 C 150.559 178.869,148.840 169.917,148.662 165.703 C 148.441 160.456,149.896 150.619,151.252 148.195 C 151.950 146.950,152.729 144.665,152.736 143.847 C 152.739 143.452,153.190 142.468,153.739 141.661 C 154.287 140.854,154.736 139.994,154.736 139.750 C 154.736 139.506,155.095 138.981,155.533 138.584 C 155.972 138.187,156.331 137.605,156.331 137.289 C 156.331 135.515,167.152 123.960,171.159 121.456 C 174.962 119.079,181.853 115.653,182.831 115.653 C 183.307 115.653,184.044 115.390,184.470 115.068 C 184.896 114.745,185.660 114.476,186.168 114.469 C 186.676 114.462,187.483 114.245,187.962 113.986 C 188.939 113.458,192.663 113.003,196.710 112.918 L 199.402 112.861 199.402 117.386 M140.883 280.246 C 141.489 280.338,142.386 280.336,142.877 280.241 C 143.367 280.146,142.871 280.071,141.775 280.074 C 140.678 280.077,140.277 280.155,140.883 280.246 M236.794 280.242 C 237.290 280.338,238.008 280.334,238.389 280.234 C 238.771 280.134,238.365 280.056,237.488 280.061 C 236.610 280.065,236.298 280.147,236.794 280.242 M166.301 288.920 C 166.411 293.389,166.590 297.134,166.700 297.244 C 166.810 297.353,166.844 293.823,166.777 289.399 C 166.709 284.975,166.530 281.230,166.378 281.076 C 166.226 280.921,166.191 284.451,166.301 288.920 M231.904 281.790 L 230.708 282.818 232.004 281.960 C 232.717 281.488,233.300 281.025,233.300 280.930 C 233.300 280.631,233.131 280.735,231.904 281.790 M226.388 281.422 C 225.718 282.092,226.097 318.151,226.776 318.411 C 227.303 318.613,227.340 318.552,226.964 318.100 C 226.618 317.683,226.526 312.802,226.608 299.347 C 226.670 289.342,226.705 281.156,226.687 281.156 C 226.668 281.156,226.534 281.276,226.388 281.422 M163.294 299.701 C 163.295 309.791,163.346 313.861,163.409 308.746 C 163.473 303.632,163.473 295.376,163.409 290.401 C 163.346 285.426,163.294 289.611,163.294 299.701 M198.387 297.707 C 198.387 306.481,198.440 310.013,198.504 305.557 C 198.568 301.100,198.568 293.922,198.504 289.605 C 198.440 285.287,198.387 288.933,198.387 297.707 M213.854 300.000 C 213.802 310.035,213.613 318.245,213.435 318.245 C 213.257 318.245,212.713 317.707,212.227 317.049 C 211.335 315.843,210.423 315.519,209.973 316.247 C 209.831 316.476,209.999 316.537,210.375 316.393 C 210.806 316.228,211.398 316.593,212.157 317.495 C 214.144 319.852,214.175 319.567,214.058 299.876 L 213.950 281.755 213.854 300.000 M210.350 296.909 C 210.350 305.025,210.403 308.288,210.468 304.161 C 210.533 300.034,210.533 293.394,210.468 289.406 C 210.403 285.417,210.350 288.794,210.350 296.909 M241.520 286.540 C 241.848 288.007,242.076 288.325,242.068 287.305 C 242.064 286.884,241.879 286.271,241.657 285.942 C 241.361 285.505,241.324 285.667,241.520 286.540 M132.181 299.900 C 132.181 306.590,132.236 309.327,132.302 305.982 C 132.369 302.637,132.369 297.164,132.302 293.819 C 132.236 290.474,132.181 293.210,132.181 299.900 M135.371 299.701 C 135.371 306.281,135.426 309.029,135.493 305.807 C 135.559 302.586,135.560 297.202,135.493 293.843 C 135.426 290.485,135.371 293.121,135.371 299.701 M245.359 302.712 C 245.301 311.927,245.111 317.872,244.867 318.167 C 244.648 318.431,244.740 318.413,245.071 318.128 C 245.591 317.679,245.658 315.585,245.563 302.673 L 245.454 287.737 245.359 302.712 M151.720 299.501 C 151.720 305.314,151.775 307.692,151.843 304.786 C 151.912 301.879,151.912 297.124,151.843 294.217 C 151.775 291.311,151.720 293.689,151.720 299.501 M166.961 301.826 C 166.394 302.452,166.301 303.658,166.301 310.367 C 166.301 315.304,166.151 318.253,165.892 318.382 C 165.667 318.493,165.712 318.538,165.992 318.482 C 166.380 318.403,166.524 316.490,166.601 310.436 C 166.696 302.905,166.745 302.456,167.542 301.795 C 168.005 301.411,168.212 301.097,168.002 301.097 C 167.793 301.097,167.324 301.425,166.961 301.826 M266.967 306.420 C 266.853 306.716,266.824 308.197,266.901 309.711 L 267.042 312.463 267.120 309.405 C 267.172 307.395,267.369 306.279,267.697 306.146 C 268.087 305.989,268.085 305.938,267.684 305.914 C 267.403 305.897,267.080 306.124,266.967 306.420 M151.638 312.263 C 151.638 313.031,151.720 313.345,151.820 312.961 C 151.921 312.577,151.921 311.949,151.820 311.565 C 151.720 311.181,151.638 311.496,151.638 312.263 M198.693 314.656 C 199.181 316.353,203.350 317.693,204.964 316.671 C 205.340 316.433,204.961 316.384,203.875 316.530 C 201.954 316.787,200.059 316.135,199.145 314.900 C 198.802 314.437,198.599 314.327,198.693 314.656 M257.188 316.052 C 257.860 317.353,258.413 318.074,258.410 317.647 C 258.408 317.428,258.040 316.800,257.591 316.251 C 257.050 315.589,256.914 315.522,257.188 316.052 M261.963 316.351 C 262.531 317.075,264.202 317.304,264.571 316.708 C 264.687 316.520,264.337 316.451,263.794 316.555 C 263.251 316.659,262.494 316.498,262.111 316.198 C 261.481 315.705,261.467 315.719,261.963 316.351 M140.883 316.936 C 141.489 317.028,142.386 317.025,142.877 316.931 C 143.367 316.836,142.871 316.761,141.775 316.764 C 140.678 316.767,140.277 316.845,140.883 316.936 M148.554 317.697 C 147.837 318.307,147.691 318.550,148.188 318.302 C 148.919 317.939,150.291 316.627,149.899 316.664 C 149.818 316.672,149.212 317.137,148.554 317.697 M229.742 317.129 C 229.725 317.502,229.397 317.990,229.013 318.213 C 228.629 318.437,228.517 318.625,228.765 318.632 C 229.423 318.650,230.218 317.557,229.979 316.963 C 229.847 316.633,229.763 316.692,229.742 317.129 M268.430 317.604 C 268.177 317.910,267.431 318.382,266.774 318.655 C 266.116 318.927,265.656 319.229,265.753 319.325 C 266.009 319.582,268.168 318.400,268.772 317.673 C 269.057 317.330,269.200 317.049,269.091 317.049 C 268.981 317.049,268.684 317.299,268.430 317.604 M144.620 319.471 C 143.916 320.024,143.585 320.650,143.616 321.365 C 143.663 322.415,143.668 322.413,143.916 321.236 C 144.093 320.395,144.582 319.833,145.563 319.343 C 146.331 318.959,146.669 318.645,146.315 318.645 C 145.961 318.644,145.198 319.016,144.620 319.471 M139.891 320.062 C 140.379 320.404,140.792 320.987,140.809 321.359 C 140.830 321.810,140.910 321.861,141.049 321.512 C 141.279 320.939,140.108 319.442,139.431 319.442 C 139.197 319.442,139.404 319.721,139.891 320.062 M201.894 319.717 C 202.278 319.817,202.906 319.817,203.290 319.717 C 203.674 319.616,203.360 319.534,202.592 319.534 C 201.825 319.534,201.510 319.616,201.894 319.717 M262.911 319.717 C 263.295 319.817,263.923 319.817,264.307 319.717 C 264.691 319.616,264.377 319.534,263.609 319.534 C 262.841 319.534,262.527 319.616,262.911 319.717 " stroke="none" fill="#47c1b9" fill-rule="evenodd"></path><path id="path2" d="M0.000 199.402 L 0.000 398.804 200.000 398.804 L 400.000 398.804 400.000 199.402 L 400.000 0.000 200.000 0.000 L 0.000 0.000 0.000 199.402 M212.562 64.010 C 222.044 65.595,226.142 66.461,226.674 66.993 C 226.897 67.216,227.599 67.398,228.235 67.398 C 228.871 67.398,229.956 67.640,230.648 67.936 C 231.339 68.233,232.981 68.872,234.297 69.356 C 236.893 70.312,237.483 70.566,242.273 72.784 C 249.299 76.038,254.438 78.951,258.070 81.739 C 259.082 82.515,260.315 83.420,260.811 83.749 C 261.307 84.078,261.916 84.526,262.165 84.746 C 262.414 84.965,263.693 86.033,265.008 87.118 C 269.496 90.825,275.572 97.219,280.376 103.290 C 284.936 109.055,291.589 120.955,293.530 126.820 C 293.711 127.368,294.411 129.340,295.085 131.203 C 295.759 133.066,296.311 134.959,296.311 135.410 C 296.311 135.862,296.481 136.402,296.688 136.610 C 297.149 137.074,298.172 141.525,298.746 145.563 C 298.979 147.208,299.380 149.272,299.635 150.150 C 300.274 152.344,300.274 174.675,299.635 176.869 C 299.380 177.747,298.979 179.811,298.746 181.456 C 298.172 185.494,297.149 189.945,296.688 190.409 C 296.481 190.617,296.307 191.335,296.302 192.004 C 296.297 192.673,295.939 194.003,295.505 194.959 C 295.071 195.915,294.716 196.875,294.716 197.092 C 294.716 197.309,294.463 198.052,294.153 198.743 C 293.844 199.434,293.136 201.167,292.580 202.592 C 287.621 215.321,276.235 230.737,265.011 239.921 C 263.698 240.995,262.172 242.282,261.621 242.780 C 260.526 243.769,253.801 248.455,253.476 248.455 C 253.366 248.455,252.666 248.868,251.922 249.374 C 251.177 249.879,248.073 251.510,245.024 252.997 C 241.976 254.484,239.005 255.955,238.423 256.265 C 237.841 256.576,237.028 256.830,236.617 256.830 C 236.207 256.830,235.516 257.076,235.084 257.377 C 234.651 257.678,233.669 258.057,232.901 258.220 C 232.134 258.383,231.326 258.657,231.107 258.827 C 230.350 259.417,222.691 261.355,218.345 262.057 C 217.029 262.269,214.516 262.698,212.762 263.009 C 204.301 264.507,186.888 263.890,179.262 261.820 C 178.166 261.523,176.461 261.093,175.474 260.866 C 171.395 259.927,168.694 259.091,168.694 258.768 C 168.694 258.579,168.200 258.424,167.597 258.423 C 166.994 258.422,165.913 258.063,165.195 257.626 C 164.477 257.188,163.607 256.830,163.262 256.830 C 162.918 256.830,162.159 256.576,161.577 256.266 C 160.995 255.957,158.814 254.929,156.730 253.982 C 143.617 248.025,131.130 238.185,121.624 226.321 C 120.218 224.566,118.972 223.041,118.856 222.931 C 118.312 222.419,114.241 216.207,113.138 214.207 C 112.458 212.973,111.493 211.246,110.993 210.369 C 110.492 209.492,109.890 208.325,109.654 207.777 C 109.419 207.228,108.807 205.882,108.296 204.786 C 107.470 203.012,106.557 200.702,104.911 196.211 C 104.629 195.444,104.213 194.098,103.985 193.220 C 103.757 192.343,103.328 191.060,103.032 190.368 C 102.735 189.677,102.493 188.677,102.493 188.146 C 102.493 187.615,102.225 186.386,101.897 185.415 C 101.569 184.444,101.130 182.303,100.920 180.658 C 100.710 179.013,100.360 176.770,100.143 175.673 C 99.630 173.083,99.630 153.937,100.143 151.346 C 100.360 150.249,100.720 148.006,100.944 146.361 C 101.168 144.716,101.608 142.601,101.922 141.661 C 102.236 140.721,102.493 139.492,102.493 138.930 C 102.493 138.367,102.735 137.342,103.032 136.651 C 103.328 135.959,103.757 134.676,103.985 133.799 C 105.854 126.597,111.760 114.271,116.787 107.079 C 124.422 96.157,138.838 82.375,146.760 78.426 C 147.089 78.262,148.076 77.700,148.953 77.178 C 151.559 75.626,160.143 71.386,160.679 71.386 C 160.951 71.386,161.443 71.117,161.772 70.788 C 162.101 70.459,162.717 70.189,163.141 70.189 C 163.564 70.189,164.581 69.831,165.399 69.392 C 166.218 68.953,167.249 68.589,167.691 68.582 C 168.133 68.575,168.843 68.305,169.269 67.983 C 169.694 67.661,170.556 67.398,171.183 67.398 C 171.810 67.398,172.862 67.119,173.521 66.778 C 174.180 66.438,175.651 66.054,176.791 65.926 C 177.931 65.798,179.073 65.529,179.328 65.328 C 179.584 65.127,181.333 64.804,183.215 64.610 C 185.097 64.416,186.861 64.111,187.137 63.934 C 188.571 63.008,206.895 63.063,212.562 64.010 M146.361 279.362 C 146.634 279.691,147.252 279.960,147.734 279.960 C 148.706 279.960,150.533 281.485,151.869 283.412 C 152.729 284.652,152.742 284.885,152.742 299.842 L 152.742 315.015 151.582 316.730 C 150.338 318.570,148.352 320.239,147.407 320.239 C 145.460 320.239,145.206 321.083,146.107 324.555 C 146.610 326.494,146.593 326.725,145.879 327.633 C 144.007 330.013,140.379 328.272,140.379 324.994 C 140.379 322.476,139.065 320.729,136.930 320.409 C 135.941 320.261,135.036 319.893,134.921 319.591 C 134.805 319.290,134.500 319.043,134.243 319.043 C 133.666 319.043,132.474 317.700,131.411 315.852 C 130.221 313.783,130.164 286.159,131.346 283.991 C 132.340 282.168,134.799 279.964,135.843 279.962 C 136.310 279.961,136.915 279.691,137.188 279.362 C 137.571 278.901,138.626 278.764,141.775 278.764 C 144.924 278.764,145.979 278.901,146.361 279.362 M241.132 279.362 C 241.258 279.691,241.765 279.960,242.258 279.960 C 243.481 279.960,245.032 281.489,246.030 283.678 C 246.828 285.430,246.859 286.133,246.859 302.140 C 246.859 321.056,247.000 320.239,243.738 320.239 C 240.305 320.239,240.479 321.196,240.479 302.239 L 240.479 285.560 238.915 284.762 L 237.352 283.965 235.426 284.812 C 234.366 285.278,233.051 286.127,232.502 286.698 L 231.505 287.737 231.384 303.283 C 231.246 320.918,231.374 320.239,228.185 320.239 C 224.722 320.239,224.925 321.523,224.925 299.682 C 224.925 282.508,224.993 280.418,225.556 280.202 C 226.801 279.724,228.091 279.966,228.514 280.758 C 228.749 281.196,229.221 281.555,229.562 281.555 C 229.904 281.555,230.640 281.196,231.197 280.758 C 231.755 280.319,232.434 279.960,232.707 279.960 C 232.979 279.960,233.426 279.691,233.699 279.362 C 234.068 278.917,235.055 278.764,237.549 278.764 C 240.162 278.764,240.953 278.896,241.132 279.362 M167.817 280.439 C 168.157 280.779,168.295 283.204,168.295 288.814 L 168.295 296.710 173.272 296.710 L 178.249 296.710 178.357 288.435 L 178.465 280.160 180.591 280.038 C 184.085 279.838,183.848 278.407,183.848 299.776 C 183.848 321.030,183.955 320.239,181.092 320.239 C 178.165 320.239,178.145 320.177,178.209 311.357 C 178.279 301.693,178.599 302.227,172.827 302.379 L 168.495 302.493 168.295 310.708 C 168.146 316.848,167.957 319.089,167.548 319.581 C 166.709 320.591,163.601 320.464,162.438 319.372 L 161.515 318.505 161.515 299.859 C 161.515 283.440,161.590 281.139,162.142 280.587 C 162.902 279.827,167.095 279.717,167.817 280.439 M198.923 280.439 C 199.279 280.795,199.405 285.058,199.415 297.089 C 199.430 315.883,199.262 315.055,203.064 315.055 C 208.498 315.055,208.973 313.425,208.973 294.776 C 208.973 279.124,208.790 279.960,212.215 279.960 C 216.009 279.960,215.753 278.520,215.753 299.859 L 215.753 318.505 214.750 319.447 C 213.595 320.532,211.988 320.258,211.208 318.843 C 210.966 318.405,210.728 317.976,210.679 317.891 C 210.630 317.805,209.912 318.253,209.084 318.887 C 207.501 320.097,204.186 321.440,202.807 321.430 C 201.498 321.420,197.255 319.982,197.092 319.492 C 197.010 319.245,196.683 319.043,196.365 319.043 C 196.047 319.043,195.670 318.729,195.526 318.345 C 195.382 317.961,195.000 317.449,194.677 317.207 C 193.232 316.124,192.391 282.277,193.768 280.619 C 194.424 279.829,198.182 279.697,198.923 280.439 M269.660 280.620 C 270.548 281.425,270.584 282.414,269.780 283.968 L 269.172 285.145 265.194 285.145 L 261.216 285.145 261.230 299.202 C 261.244 314.534,261.322 315.055,263.602 315.055 C 265.261 315.055,265.603 314.189,265.603 309.988 C 265.603 305.059,266.019 304.287,268.670 304.287 C 271.516 304.287,271.984 305.090,271.984 309.978 C 271.984 316.655,270.541 319.169,265.734 320.871 C 261.870 322.238,256.906 319.626,255.432 315.449 C 254.492 312.785,254.549 281.735,255.496 280.689 C 256.444 279.642,268.513 279.583,269.660 280.620 M139.781 284.612 C 137.016 286.073,137.188 285.038,137.188 300.162 C 137.188 311.603,137.280 313.858,137.744 313.858 C 138.050 313.858,138.403 314.128,138.529 314.457 C 138.820 315.214,144.237 315.285,145.194 314.544 C 147.504 312.757,147.525 285.151,145.217 285.142 C 144.859 285.141,144.052 284.872,143.424 284.544 C 141.997 283.800,141.293 283.813,139.781 284.612 " stroke="none" fill="#040404" fill-rule="evenodd"></path><path id="path3" d="M194.600 64.342 C 194.482 64.468,191.889 64.779,188.838 65.033 C 185.786 65.288,182.586 65.744,181.725 66.048 C 180.863 66.352,179.452 66.600,178.588 66.600 C 177.723 66.600,176.637 66.803,176.174 67.051 C 175.710 67.299,174.331 67.727,173.109 68.001 C 171.887 68.275,170.259 68.729,169.492 69.010 C 168.724 69.292,167.109 69.876,165.902 70.310 C 162.090 71.680,152.706 76.139,149.751 77.984 C 148.873 78.532,147.886 79.098,147.557 79.242 C 147.228 79.385,146.869 79.606,146.760 79.733 C 146.650 79.859,145.753 80.499,144.766 81.154 C 133.807 88.431,124.359 97.891,116.682 109.272 C 114.383 112.681,107.280 126.544,107.276 127.632 C 107.274 127.953,107.022 128.697,106.715 129.285 C 106.408 129.874,106.033 130.950,105.881 131.678 C 105.729 132.406,105.381 133.360,105.108 133.799 C 104.835 134.237,104.486 135.395,104.332 136.371 C 104.178 137.347,103.900 138.334,103.713 138.564 C 103.527 138.795,103.179 140.150,102.941 141.575 C 102.702 143.001,102.334 144.885,102.122 145.763 C 100.223 153.620,100.223 173.445,102.122 181.256 C 102.335 182.134,102.687 183.987,102.903 185.375 C 103.119 186.764,103.479 188.242,103.703 188.660 C 103.927 189.078,104.270 190.186,104.467 191.121 C 104.855 192.966,105.778 195.676,106.698 197.667 C 107.017 198.359,107.278 199.160,107.278 199.447 C 107.278 203.167,119.702 223.178,126.402 230.251 C 133.413 237.652,145.456 247.657,147.354 247.657 C 147.446 247.657,148.190 248.110,149.007 248.665 C 151.456 250.327,164.110 256.419,165.165 256.443 C 165.461 256.450,166.051 256.720,166.477 257.042 C 166.903 257.364,167.621 257.628,168.072 257.630 C 168.524 257.631,169.411 257.902,170.043 258.232 C 170.675 258.561,171.921 258.947,172.811 259.090 C 173.701 259.232,174.889 259.588,175.450 259.881 C 176.011 260.174,177.140 260.415,177.958 260.416 C 178.776 260.418,180.122 260.683,180.949 261.006 C 181.776 261.329,184.427 261.775,186.839 261.997 C 189.252 262.219,192.752 262.591,194.616 262.825 C 196.481 263.058,198.544 263.152,199.202 263.034 C 201.651 262.593,211.929 261.615,214.120 261.615 C 215.369 261.615,216.588 261.418,216.829 261.177 C 217.070 260.936,218.650 260.584,220.340 260.394 C 222.030 260.205,223.618 259.880,223.870 259.673 C 224.121 259.466,225.224 259.171,226.321 259.017 C 227.418 258.863,228.713 258.487,229.198 258.182 C 229.684 257.877,230.447 257.627,230.895 257.627 C 231.342 257.627,232.377 257.268,233.196 256.830 C 234.014 256.391,234.986 256.032,235.356 256.032 C 235.725 256.032,236.535 255.769,237.156 255.448 C 237.777 255.127,240.528 253.773,243.270 252.441 C 246.012 251.108,248.973 249.585,249.850 249.056 C 250.728 248.527,251.715 247.962,252.044 247.800 C 252.373 247.639,253.451 246.942,254.439 246.252 C 255.427 245.562,256.446 244.923,256.703 244.832 C 256.960 244.740,257.766 244.175,258.495 243.574 C 259.224 242.974,260.826 241.710,262.055 240.766 C 266.248 237.544,277.168 226.718,277.168 225.783 C 277.168 225.628,277.485 225.230,277.873 224.898 C 279.658 223.370,285.380 214.315,288.441 208.175 C 289.589 205.872,290.663 203.928,290.828 203.855 C 290.992 203.782,291.127 203.420,291.127 203.052 C 291.127 202.683,291.486 201.711,291.924 200.893 C 292.363 200.074,292.722 199.118,292.722 198.767 C 292.722 198.416,292.964 197.653,293.260 197.071 C 294.057 195.504,295.144 192.245,295.475 190.429 C 295.634 189.551,295.968 188.461,296.215 188.005 C 296.462 187.550,296.781 186.204,296.923 185.014 C 297.065 183.825,297.422 182.134,297.716 181.256 C 298.009 180.379,298.342 177.859,298.455 175.656 C 298.568 173.454,298.850 171.154,299.081 170.546 C 299.632 169.095,299.626 157.904,299.072 156.457 C 298.836 155.839,298.511 153.270,298.349 150.748 C 298.187 148.225,297.866 145.803,297.634 145.364 C 297.403 144.925,297.088 143.412,296.934 142.002 C 296.780 140.591,296.397 139.070,296.084 138.623 C 295.770 138.175,295.513 137.260,295.513 136.590 C 295.513 135.920,295.267 135.018,294.966 134.585 C 294.665 134.153,294.295 133.170,294.143 132.403 C 293.991 131.635,293.626 130.469,293.331 129.811 C 293.037 129.153,292.482 127.807,292.099 126.820 C 291.164 124.409,286.959 115.847,285.734 113.858 C 285.194 112.981,284.616 111.990,284.450 111.657 C 284.169 111.094,281.349 106.785,280.671 105.882 C 280.506 105.663,279.920 104.919,279.368 104.230 C 278.816 103.540,278.365 102.861,278.365 102.721 C 278.365 102.580,277.827 101.939,277.168 101.296 C 276.510 100.653,275.972 100.017,275.972 99.882 C 275.972 99.748,275.299 98.954,274.477 98.119 C 273.654 97.283,271.981 95.547,270.759 94.261 C 269.537 92.976,267.652 91.147,266.571 90.197 C 265.491 89.247,264.158 88.067,263.609 87.575 C 262.702 86.760,260.360 85.020,254.987 81.169 C 253.917 80.402,252.502 79.502,251.844 79.170 C 251.186 78.838,250.110 78.218,249.452 77.793 C 248.794 77.368,246.550 76.190,244.467 75.175 C 242.383 74.159,240.229 73.095,239.681 72.810 C 239.133 72.525,238.190 72.174,237.587 72.031 C 236.984 71.887,236.491 71.593,236.491 71.378 C 236.491 71.163,236.084 70.987,235.587 70.987 C 235.091 70.987,234.014 70.628,233.196 70.189 C 232.377 69.751,231.331 69.392,230.871 69.392 C 230.410 69.392,229.557 69.142,228.975 68.838 C 227.952 68.302,225.936 67.805,221.336 66.954 C 220.130 66.731,218.514 66.369,217.747 66.149 C 215.492 65.504,195.011 63.905,194.600 64.342 M199.486 73.579 L 199.370 81.755 197.891 81.758 C 197.077 81.759,195.155 81.894,193.619 82.057 L 190.828 82.353 195.414 82.634 C 212.698 83.695,222.165 85.529,231.306 89.589 C 247.277 96.681,259.485 107.144,268.303 121.300 C 271.275 126.069,275.174 134.013,275.174 135.297 C 275.174 135.653,275.340 136.047,275.543 136.172 C 275.745 136.298,276.037 136.981,276.192 137.692 C 276.346 138.402,276.661 139.432,276.890 139.980 C 277.443 141.299,278.310 144.791,278.821 147.757 C 279.048 149.073,279.487 151.263,279.796 152.624 C 280.575 156.050,280.565 170.157,279.780 174.477 C 278.205 183.148,276.799 188.574,275.570 190.722 C 275.353 191.103,275.174 191.630,275.174 191.893 C 275.174 193.779,268.794 205.613,264.890 210.967 C 259.067 218.954,248.781 228.474,242.672 231.531 C 242.014 231.860,240.937 232.480,240.279 232.908 C 239.621 233.337,238.665 233.870,238.155 234.093 C 237.645 234.317,236.960 234.768,236.631 235.096 C 236.303 235.424,235.761 235.693,235.427 235.693 C 235.093 235.693,234.343 235.947,233.760 236.257 C 231.219 237.611,229.247 238.485,228.734 238.485 C 228.429 238.485,227.672 238.738,227.051 239.048 C 225.071 240.036,217.210 242.133,212.762 242.860 C 208.597 243.540,198.919 244.417,194.616 244.503 C 190.494 244.586,192.529 245.134,197.292 245.225 L 199.370 245.264 199.486 253.440 L 199.601 261.616 195.822 261.616 C 193.743 261.615,190.692 261.355,189.042 261.036 C 187.392 260.718,184.606 260.277,182.851 260.055 C 177.702 259.406,173.785 258.612,172.196 257.897 C 171.381 257.529,170.189 257.228,169.547 257.228 C 168.878 257.228,168.283 256.973,168.151 256.630 C 168.003 256.244,167.385 256.032,166.410 256.032 C 165.330 256.032,164.755 255.804,164.400 255.234 C 164.061 254.692,163.470 254.437,162.552 254.437 C 161.720 254.437,161.114 254.207,160.972 253.838 C 160.844 253.503,160.251 253.240,159.623 253.240 C 158.996 253.240,158.201 252.889,157.819 252.443 C 157.444 252.004,156.705 251.645,156.178 251.645 C 155.651 251.645,155.117 251.376,154.990 251.047 C 154.864 250.718,154.346 250.449,153.840 250.449 C 153.333 250.449,152.612 250.090,152.236 249.651 C 151.860 249.212,151.212 248.853,150.794 248.853 C 150.377 248.853,149.932 248.584,149.806 248.255 C 149.680 247.926,149.341 247.657,149.054 247.657 C 148.767 247.657,148.225 247.298,147.849 246.859 C 147.474 246.421,146.806 246.062,146.365 246.062 C 145.924 246.062,145.563 245.835,145.563 245.558 C 145.563 245.281,145.235 244.877,144.835 244.661 C 144.434 244.444,143.599 244.002,142.980 243.677 C 142.361 243.353,141.265 242.546,140.544 241.883 C 137.956 239.504,135.459 237.687,134.778 237.687 C 134.568 237.687,134.397 237.483,134.397 237.234 C 134.397 236.702,132.533 234.895,131.983 234.895 C 131.775 234.895,131.605 234.638,131.605 234.324 C 131.605 234.010,131.246 233.639,130.808 233.500 C 130.369 233.360,130.010 232.989,130.010 232.675 C 130.010 232.361,129.839 232.104,129.629 232.104 C 129.135 232.104,127.218 230.187,127.218 229.693 C 127.218 229.483,126.949 229.312,126.620 229.312 C 126.291 229.312,126.022 229.083,126.022 228.802 C 126.022 228.522,125.708 228.002,125.324 227.647 C 124.940 227.292,124.098 226.265,123.453 225.365 C 122.808 224.465,122.135 223.729,121.957 223.729 C 121.780 223.729,121.635 223.454,121.635 223.118 C 121.635 222.782,121.366 222.404,121.037 222.278 C 120.708 222.152,120.439 221.826,120.439 221.555 C 120.439 221.283,120.080 220.736,119.641 220.339 C 119.202 219.942,118.843 219.464,118.843 219.276 C 118.843 219.088,118.249 218.084,117.523 217.045 C 116.796 216.005,116.084 214.840,115.940 214.457 C 115.796 214.073,115.507 213.759,115.298 213.759 C 115.090 213.759,114.798 213.208,114.650 212.535 C 114.502 211.863,114.129 211.215,113.821 211.097 C 113.512 210.979,113.260 210.570,113.260 210.188 C 113.260 209.806,112.901 209.080,112.463 208.574 C 112.024 208.068,111.665 207.318,111.665 206.906 C 111.665 206.494,111.396 206.053,111.067 205.927 C 110.738 205.801,110.469 205.268,110.469 204.743 C 110.469 204.218,110.110 203.430,109.671 202.991 C 109.232 202.552,108.873 201.739,108.873 201.184 C 108.873 200.629,108.604 200.071,108.275 199.945 C 107.885 199.795,107.677 199.174,107.677 198.159 C 107.677 197.096,107.424 196.386,106.879 195.919 C 106.352 195.468,106.082 194.743,106.082 193.779 C 106.082 192.969,105.816 192.100,105.484 191.825 C 105.140 191.539,104.885 190.670,104.885 189.780 C 104.885 188.929,104.526 187.563,104.088 186.744 C 103.560 185.760,103.290 184.494,103.290 183.006 C 103.290 181.492,103.094 180.593,102.692 180.259 C 102.220 179.867,102.090 178.701,102.076 174.727 C 102.067 171.957,101.867 168.883,101.632 167.896 C 100.900 164.813,100.766 161.157,101.361 160.440 C 101.741 159.982,101.934 158.011,102.033 153.578 C 102.130 149.244,102.328 147.176,102.687 146.760 C 102.970 146.431,103.274 144.960,103.363 143.492 C 103.470 141.718,103.753 140.571,104.205 140.071 C 104.637 139.593,104.885 138.655,104.885 137.499 C 104.885 136.249,105.073 135.607,105.484 135.449 C 105.887 135.294,106.082 134.661,106.082 133.501 C 106.082 132.276,106.311 131.586,106.879 131.100 C 107.398 130.655,107.677 129.923,107.677 129.004 C 107.677 128.117,107.899 127.507,108.275 127.363 C 108.605 127.236,108.873 126.644,108.873 126.041 C 108.873 125.441,109.232 124.624,109.671 124.227 C 110.110 123.830,110.469 123.014,110.469 122.414 C 110.469 121.811,110.737 121.219,111.067 121.092 C 111.396 120.966,111.665 120.525,111.665 120.113 C 111.665 119.701,112.024 118.950,112.463 118.445 C 112.901 117.939,113.260 117.213,113.260 116.831 C 113.260 116.449,113.512 116.040,113.821 115.922 C 114.129 115.804,114.499 115.171,114.643 114.517 C 114.787 113.862,115.162 113.228,115.478 113.107 C 115.794 112.986,116.052 112.612,116.052 112.276 C 116.052 111.940,116.366 111.306,116.750 110.867 C 117.134 110.429,117.762 109.711,118.146 109.272 C 118.529 108.833,118.843 108.233,118.843 107.938 C 118.843 107.643,119.202 107.077,119.641 106.680 C 120.080 106.283,120.439 105.717,120.439 105.422 C 120.439 105.127,120.624 104.885,120.850 104.885 C 121.076 104.885,121.377 104.585,121.517 104.218 C 121.658 103.851,122.056 103.244,122.402 102.869 C 122.748 102.495,123.390 101.707,123.829 101.119 C 124.267 100.531,124.940 99.752,125.324 99.388 C 125.708 99.024,126.022 98.497,126.022 98.216 C 126.022 97.936,126.291 97.707,126.620 97.707 C 126.949 97.707,127.218 97.459,127.218 97.155 C 127.218 96.852,127.577 96.510,128.016 96.395 C 128.455 96.280,128.814 95.900,128.814 95.551 C 128.814 95.201,129.083 94.915,129.412 94.915 C 129.741 94.915,130.010 94.667,130.010 94.364 C 130.010 94.060,130.369 93.718,130.808 93.603 C 131.246 93.489,131.605 93.109,131.605 92.759 C 131.605 92.410,131.830 92.121,132.104 92.117 C 132.712 92.108,134.397 90.387,134.397 89.774 C 134.397 89.531,134.560 89.332,134.760 89.332 C 135.311 89.332,138.385 87.243,138.385 86.868 C 138.385 86.688,138.614 86.540,138.894 86.540 C 139.175 86.540,139.700 86.226,140.063 85.842 C 141.460 84.362,144.525 82.154,145.182 82.154 C 145.392 82.154,145.563 81.884,145.563 81.555 C 145.563 81.222,145.918 80.957,146.365 80.957 C 146.806 80.957,147.474 80.598,147.849 80.160 C 148.225 79.721,148.851 79.362,149.241 79.362 C 149.631 79.362,149.950 79.093,149.950 78.764 C 149.950 78.392,150.326 78.166,150.944 78.166 C 151.506 78.166,152.154 77.819,152.436 77.368 C 152.730 76.896,153.366 76.570,153.991 76.570 C 154.573 76.570,155.153 76.301,155.279 75.972 C 155.405 75.643,155.961 75.374,156.515 75.374 C 157.089 75.374,157.734 75.031,158.019 74.576 C 158.324 74.088,158.949 73.779,159.630 73.779 C 160.251 73.779,160.844 73.514,160.972 73.180 C 161.111 72.819,161.713 72.582,162.493 72.582 C 163.278 72.582,164.068 72.269,164.506 71.785 C 164.982 71.259,165.735 70.987,166.713 70.987 C 167.546 70.987,168.415 70.725,168.694 70.389 C 168.967 70.060,169.623 69.791,170.151 69.791 C 170.680 69.791,172.138 69.445,173.392 69.023 C 174.647 68.600,176.839 68.076,178.265 67.858 C 179.691 67.640,181.575 67.272,182.453 67.040 C 183.330 66.809,185.125 66.601,186.441 66.578 C 187.757 66.555,189.641 66.305,190.628 66.022 C 191.615 65.739,194.038 65.484,196.012 65.455 L 199.601 65.403 199.486 73.579 M119.006 163.509 C 119.006 167.129,119.066 168.609,119.140 166.800 C 119.214 164.990,119.214 162.029,119.140 160.219 C 119.066 158.410,119.006 159.890,119.006 163.509 " stroke="none" fill="#276e67" fill-rule="evenodd"></path><path id="path4" d="M137.899 279.840 C 131.930 281.407,131.206 283.576,131.206 299.900 C 131.206 316.459,131.984 318.663,138.309 320.028 C 139.829 320.356,140.589 321.691,140.980 324.720 C 141.241 326.742,142.222 327.817,143.809 327.817 C 145.426 327.817,145.767 326.858,145.240 323.789 C 144.979 322.267,144.766 320.870,144.766 320.685 C 144.766 320.499,145.580 320.037,146.576 319.656 C 152.137 317.532,152.343 316.829,152.343 299.913 L 152.343 285.936 151.320 284.042 C 149.151 280.026,143.697 278.318,137.899 279.840 M234.186 279.922 C 233.248 280.295,231.928 281.084,231.254 281.676 C 229.704 283.036,229.090 283.031,228.433 281.655 C 227.707 280.137,226.248 279.975,225.723 281.354 C 225.479 281.999,225.324 289.258,225.324 300.126 C 225.324 319.841,225.268 319.442,228.039 319.442 C 230.783 319.442,230.686 320.003,230.907 302.756 L 231.107 287.202 232.066 286.181 C 234.893 283.174,239.414 282.832,240.764 285.522 C 240.936 285.863,241.116 293.409,241.165 302.291 C 241.265 320.091,241.167 319.442,243.745 319.442 C 246.472 319.442,246.462 319.501,246.446 302.991 C 246.429 285.259,246.132 283.195,243.309 281.184 C 241.470 279.874,241.515 280.218,243.423 282.054 C 245.684 284.229,245.747 284.866,245.585 304.088 L 245.464 318.445 244.034 318.565 C 241.678 318.762,241.720 319.059,241.593 301.542 L 241.476 285.477 240.123 284.269 C 238.371 282.704,235.901 282.822,233.256 284.596 C 230.132 286.692,230.151 286.579,230.129 303.142 C 230.108 319.230,230.175 318.815,227.643 318.572 L 226.321 318.445 226.217 299.926 C 226.114 281.453,226.153 280.793,227.369 280.764 C 227.507 280.760,227.843 281.296,228.116 281.954 C 228.764 283.520,229.670 283.481,231.881 281.793 C 233.911 280.244,235.958 279.774,239.220 280.109 C 241.468 280.340,241.471 280.339,240.080 279.782 C 238.239 279.045,236.279 279.092,234.186 279.922 M144.566 280.180 C 147.561 280.578,149.768 282.021,150.950 284.352 L 151.944 286.314 151.944 299.903 C 151.944 316.710,152.015 316.463,146.461 319.047 C 143.685 320.337,143.627 320.483,144.626 323.651 C 145.432 326.209,145.184 327.019,143.596 327.019 C 142.162 327.019,141.822 326.476,141.165 323.138 C 140.597 320.245,140.535 320.178,137.392 319.076 C 132.185 317.250,132.039 316.727,132.039 299.900 C 132.039 284.201,132.285 282.966,135.793 281.051 C 136.777 280.514,141.158 279.620,141.974 279.790 C 142.303 279.859,143.470 280.034,144.566 280.180 M162.726 281.130 C 162.459 281.630,162.313 288.303,162.313 300.051 L 162.313 318.200 163.199 318.821 C 166.611 321.210,167.460 319.514,167.589 310.048 L 167.697 302.094 173.081 302.094 L 178.465 302.094 178.573 310.239 C 178.690 319.071,178.782 319.442,180.844 319.442 C 183.525 319.442,183.450 320.013,183.450 299.619 C 183.450 279.107,183.615 280.216,180.588 280.434 L 178.863 280.558 178.664 288.734 L 178.465 296.909 173.081 296.909 L 167.697 296.909 167.588 289.163 C 167.520 284.272,167.318 281.221,167.041 280.888 C 166.332 280.033,163.219 280.208,162.726 281.130 M194.178 281.456 C 193.903 282.177,193.804 288.105,193.889 298.770 L 194.018 314.987 195.214 316.685 C 198.044 320.702,203.736 321.545,208.144 318.601 L 210.597 316.964 211.586 318.030 C 212.215 318.709,212.898 319.051,213.466 318.970 L 214.357 318.843 214.461 300.145 C 214.574 279.741,214.643 280.355,212.214 280.365 C 209.688 280.376,209.808 279.613,209.685 296.336 C 209.573 311.442,209.557 311.703,208.698 312.796 C 206.213 315.954,201.979 316.953,200.024 314.843 L 199.003 313.742 199.003 297.529 C 199.003 279.584,199.124 280.359,196.321 280.359 C 194.807 280.359,194.545 280.493,194.178 281.456 M256.206 280.878 C 256.097 281.164,256.058 289.199,256.119 298.735 L 256.231 316.072 257.159 317.258 C 261.071 322.261,270.944 320.497,270.747 314.831 L 270.706 313.659 270.392 314.987 C 269.105 320.427,260.688 321.506,257.471 316.644 L 256.431 315.072 256.431 297.915 L 256.431 280.758 262.426 280.758 C 268.248 280.758,268.430 280.783,268.747 281.640 C 269.552 283.817,268.644 284.333,263.988 284.342 C 259.722 284.349,260.020 283.248,260.020 298.996 C 260.020 313.683,260.136 314.652,262.061 316.000 C 264.823 317.935,266.546 315.901,266.800 310.407 L 266.999 306.082 268.794 306.082 L 270.588 306.082 270.811 309.870 L 271.034 313.659 271.110 309.999 C 271.200 305.674,270.752 304.857,268.489 305.224 C 266.165 305.601,266.002 305.946,266.002 310.495 C 266.002 314.933,265.554 315.852,263.391 315.852 C 260.860 315.852,260.797 315.436,260.912 299.470 L 261.017 284.945 264.978 284.746 C 269.321 284.527,270.143 283.856,269.178 281.318 C 268.743 280.174,256.634 279.764,256.206 280.878 M166.725 281.822 C 166.952 282.419,167.105 285.966,167.072 289.898 C 167.015 296.883,167.018 296.911,167.954 297.402 C 169.083 297.994,176.555 298.082,178.032 297.521 L 179.046 297.135 179.154 289.046 L 179.262 280.957 180.903 280.837 C 183.119 280.675,183.052 280.060,183.045 300.449 C 183.038 319.166,183.088 318.758,180.817 318.572 L 179.262 318.445 179.042 310.070 C 178.921 305.464,178.787 301.645,178.743 301.584 C 178.700 301.523,176.107 301.523,172.981 301.584 L 167.298 301.695 167.190 309.641 C 167.070 318.430,166.981 318.752,164.740 318.565 L 163.310 318.445 163.206 300.100 C 163.149 290.010,163.188 281.530,163.293 281.256 C 163.686 280.233,166.284 280.661,166.725 281.822 M198.604 297.576 C 198.800 313.882,198.820 314.213,199.664 315.183 C 202.042 317.917,208.293 315.949,209.798 311.992 C 210.003 311.453,210.169 304.439,210.169 296.334 C 210.169 280.161,210.102 280.587,212.636 280.830 L 213.958 280.957 213.958 299.668 C 213.958 319.835,213.975 319.685,211.904 317.471 L 210.768 316.257 209.397 317.151 C 206.247 319.208,205.521 319.526,203.512 319.734 C 200.058 320.090,196.557 318.426,195.176 315.773 C 194.571 314.609,194.309 281.596,194.901 281.005 C 195.057 280.848,195.910 280.774,196.795 280.839 L 198.405 280.957 198.604 297.576 M139.169 283.478 C 138.032 283.982,136.919 284.941,136.454 285.816 C 135.807 287.035,135.806 312.614,136.452 314.033 C 138.026 317.487,145.354 317.373,147.218 313.865 C 148.357 311.721,148.341 287.531,147.199 285.799 C 145.677 283.491,141.721 282.347,139.169 283.478 M144.614 284.197 C 147.568 285.598,147.558 285.545,147.556 299.762 C 147.554 311.752,147.510 312.536,146.758 313.769 C 144.757 317.051,137.343 316.525,136.648 313.052 C 136.306 311.340,136.393 287.614,136.747 286.344 C 137.377 284.079,141.813 282.868,144.614 284.197 " stroke="none" fill="#616966" fill-rule="evenodd"></path><path id="path5" d="M200.199 83.981 C 200.199 84.438,200.305 84.918,200.434 85.047 C 200.564 85.176,200.646 88.347,200.617 92.093 L 200.565 98.903 203.672 98.905 C 208.964 98.908,216.208 100.375,222.333 102.684 C 223.868 103.263,225.484 103.841,225.922 103.968 C 226.361 104.096,226.989 104.430,227.318 104.711 C 227.647 104.992,228.410 105.345,229.013 105.496 C 229.616 105.646,230.110 105.893,230.110 106.045 C 230.110 106.196,230.738 106.547,231.505 106.825 C 232.273 107.103,232.901 107.498,232.901 107.703 C 232.901 107.908,233.103 108.076,233.349 108.076 C 233.595 108.076,234.981 108.928,236.428 109.970 C 237.875 111.012,239.513 112.154,240.068 112.507 C 240.623 112.860,242.275 114.297,243.739 115.699 C 245.203 117.101,246.818 118.624,247.328 119.082 C 247.838 119.541,248.524 120.313,248.853 120.798 C 249.182 121.282,250.125 122.425,250.947 123.336 C 251.770 124.247,252.443 125.197,252.443 125.446 C 252.443 125.695,252.802 126.223,253.240 126.620 C 253.679 127.017,254.038 127.583,254.038 127.878 C 254.038 128.173,254.221 128.415,254.445 128.415 C 254.669 128.415,255.069 128.908,255.334 129.511 C 255.599 130.115,255.913 130.698,256.032 130.808 C 256.151 130.917,256.467 131.456,256.735 132.004 C 257.003 132.552,257.383 133.270,257.578 133.599 C 258.758 135.581,260.821 140.311,260.819 141.028 C 260.818 141.495,261.082 142.096,261.405 142.364 C 261.728 142.632,262.099 143.507,262.230 144.307 C 262.360 145.108,262.704 146.391,262.995 147.159 C 265.661 154.196,265.658 172.887,262.990 179.860 C 262.696 180.628,262.339 181.852,262.197 182.579 C 262.055 183.307,261.688 184.384,261.381 184.972 C 261.074 185.560,260.821 186.283,260.820 186.579 C 260.819 186.874,260.556 187.592,260.237 188.174 C 259.918 188.756,259.183 190.219,258.604 191.426 C 257.119 194.520,256.345 195.980,256.069 196.211 C 255.938 196.321,255.577 196.904,255.266 197.507 C 254.955 198.111,254.552 198.604,254.369 198.604 C 254.187 198.604,254.038 198.837,254.038 199.121 C 254.038 199.406,253.770 199.989,253.443 200.417 C 250.623 204.113,249.364 205.730,248.853 206.313 C 247.314 208.070,244.406 210.921,242.633 212.414 C 238.537 215.863,238.158 216.152,237.729 216.152 C 237.487 216.152,237.288 216.321,237.288 216.529 C 237.288 216.908,236.034 217.706,233.998 218.624 C 233.395 218.896,232.901 219.236,232.901 219.381 C 232.901 219.526,232.318 219.880,231.605 220.168 C 230.892 220.457,230.219 220.792,230.110 220.915 C 229.870 221.181,226.866 222.643,224.925 223.437 C 217.747 226.375,213.397 227.432,205.314 228.202 L 200.659 228.646 200.526 236.257 C 200.453 240.443,200.432 243.935,200.478 244.016 C 200.596 244.224,209.834 243.350,212.961 242.836 C 217.206 242.137,225.127 240.008,227.051 239.048 C 227.672 238.738,228.429 238.485,228.734 238.485 C 229.247 238.485,231.219 237.611,233.760 236.257 C 234.343 235.947,235.093 235.693,235.427 235.693 C 235.761 235.693,236.303 235.424,236.631 235.096 C 236.960 234.768,237.645 234.317,238.155 234.093 C 238.665 233.870,239.621 233.337,240.279 232.908 C 240.937 232.480,242.014 231.860,242.672 231.531 C 248.781 228.474,259.067 218.954,264.890 210.967 C 268.794 205.613,275.174 193.779,275.174 191.893 C 275.174 191.630,275.353 191.103,275.570 190.722 C 276.799 188.574,278.205 183.148,279.780 174.477 C 280.565 170.157,280.575 156.050,279.796 152.624 C 279.487 151.263,279.048 149.073,278.821 147.757 C 278.310 144.791,277.443 141.299,276.890 139.980 C 276.661 139.432,276.346 138.402,276.192 137.692 C 276.037 136.981,275.745 136.298,275.543 136.172 C 275.340 136.047,275.174 135.653,275.174 135.297 C 275.174 134.013,271.275 126.069,268.303 121.300 C 262.768 112.415,254.944 103.994,247.154 98.537 C 239.623 93.262,232.094 89.512,223.928 86.968 C 214.030 83.885,200.198 82.144,200.199 83.981 " stroke="none" fill="#1c7c84" fill-rule="evenodd"></path><path id="path6" d="M190.628 66.022 C 189.641 66.305,187.757 66.555,186.441 66.578 C 185.125 66.601,183.330 66.809,182.453 67.040 C 181.575 67.272,179.691 67.640,178.265 67.858 C 176.839 68.076,174.647 68.600,173.392 69.023 C 172.138 69.445,170.680 69.791,170.151 69.791 C 169.623 69.791,168.967 70.060,168.694 70.389 C 168.415 70.725,167.546 70.987,166.713 70.987 C 165.735 70.987,164.982 71.259,164.506 71.785 C 164.068 72.269,163.278 72.582,162.493 72.582 C 161.713 72.582,161.111 72.819,160.972 73.180 C 160.844 73.514,160.251 73.779,159.630 73.779 C 158.949 73.779,158.324 74.088,158.019 74.576 C 157.734 75.031,157.089 75.374,156.515 75.374 C 155.961 75.374,155.405 75.643,155.279 75.972 C 155.153 76.301,154.573 76.570,153.991 76.570 C 153.366 76.570,152.730 76.896,152.436 77.368 C 152.154 77.819,151.506 78.166,150.944 78.166 C 150.326 78.166,149.950 78.392,149.950 78.764 C 149.950 79.093,149.631 79.362,149.241 79.362 C 148.851 79.362,148.225 79.721,147.849 80.160 C 147.474 80.598,146.806 80.957,146.365 80.957 C 145.918 80.957,145.563 81.222,145.563 81.555 C 145.563 81.884,145.392 82.154,145.182 82.154 C 144.525 82.154,141.460 84.362,140.063 85.842 C 139.700 86.226,139.175 86.540,138.894 86.540 C 138.614 86.540,138.385 86.688,138.385 86.868 C 138.385 87.243,135.311 89.332,134.760 89.332 C 134.560 89.332,134.397 89.531,134.397 89.774 C 134.397 90.387,132.712 92.108,132.104 92.117 C 131.830 92.121,131.605 92.410,131.605 92.759 C 131.605 93.109,131.246 93.489,130.808 93.603 C 130.369 93.718,130.010 94.060,130.010 94.364 C 130.010 94.667,129.741 94.915,129.412 94.915 C 129.083 94.915,128.814 95.201,128.814 95.551 C 128.814 95.900,128.455 96.280,128.016 96.395 C 127.577 96.510,127.218 96.852,127.218 97.155 C 127.218 97.459,126.949 97.707,126.620 97.707 C 126.291 97.707,126.022 97.936,126.022 98.216 C 126.022 98.497,125.708 99.024,125.324 99.388 C 124.940 99.752,124.267 100.531,123.829 101.119 C 123.390 101.707,122.748 102.495,122.402 102.869 C 122.056 103.244,121.658 103.851,121.517 104.218 C 121.377 104.585,121.076 104.885,120.850 104.885 C 120.624 104.885,120.439 105.127,120.439 105.422 C 120.439 105.717,120.080 106.283,119.641 106.680 C 119.202 107.077,118.843 107.643,118.843 107.938 C 118.843 108.233,118.529 108.833,118.146 109.272 C 117.762 109.711,117.134 110.429,116.750 110.867 C 116.366 111.306,116.052 111.940,116.052 112.276 C 116.052 112.612,115.794 112.986,115.478 113.107 C 115.162 113.228,114.787 113.862,114.643 114.517 C 114.499 115.171,114.129 115.804,113.821 115.922 C 113.512 116.040,113.260 116.449,113.260 116.831 C 113.260 117.213,112.901 117.939,112.463 118.445 C 112.024 118.950,111.665 119.701,111.665 120.113 C 111.665 120.525,111.396 120.966,111.067 121.092 C 110.737 121.219,110.469 121.811,110.469 122.414 C 110.469 123.014,110.110 123.830,109.671 124.227 C 109.232 124.624,108.873 125.441,108.873 126.041 C 108.873 126.644,108.605 127.236,108.275 127.363 C 107.899 127.507,107.677 128.117,107.677 129.004 C 107.677 129.923,107.398 130.655,106.879 131.100 C 106.311 131.586,106.082 132.276,106.082 133.501 C 106.082 134.661,105.887 135.294,105.484 135.449 C 105.073 135.607,104.885 136.249,104.885 137.499 C 104.885 138.655,104.637 139.593,104.205 140.071 C 103.753 140.571,103.470 141.718,103.363 143.492 C 103.274 144.960,102.970 146.431,102.687 146.760 C 102.328 147.176,102.130 149.244,102.033 153.578 C 101.934 158.011,101.741 159.982,101.361 160.440 C 100.766 161.157,100.900 164.813,101.632 167.896 C 101.867 168.883,102.067 171.957,102.076 174.727 C 102.090 178.701,102.220 179.867,102.692 180.259 C 103.094 180.593,103.290 181.492,103.290 183.006 C 103.290 184.494,103.560 185.760,104.088 186.744 C 104.526 187.563,104.885 188.929,104.885 189.780 C 104.885 190.670,105.140 191.539,105.484 191.825 C 105.816 192.100,106.082 192.969,106.082 193.779 C 106.082 194.743,106.352 195.468,106.879 195.919 C 107.424 196.386,107.677 197.096,107.677 198.159 C 107.677 199.174,107.885 199.795,108.275 199.945 C 108.604 200.071,108.873 200.629,108.873 201.184 C 108.873 201.739,109.232 202.552,109.671 202.991 C 110.110 203.430,110.469 204.218,110.469 204.743 C 110.469 205.268,110.738 205.801,111.067 205.927 C 111.396 206.053,111.665 206.494,111.665 206.906 C 111.665 207.318,112.024 208.068,112.463 208.574 C 112.901 209.080,113.260 209.806,113.260 210.188 C 113.260 210.570,113.512 210.979,113.821 211.097 C 114.129 211.215,114.502 211.863,114.650 212.535 C 114.798 213.208,115.090 213.759,115.298 213.759 C 115.507 213.759,115.796 214.073,115.940 214.457 C 116.084 214.840,116.796 216.005,117.523 217.045 C 118.249 218.084,118.843 219.088,118.843 219.276 C 118.843 219.464,119.202 219.942,119.641 220.339 C 120.080 220.736,120.439 221.283,120.439 221.555 C 120.439 221.826,120.708 222.152,121.037 222.278 C 121.366 222.404,121.635 222.782,121.635 223.118 C 121.635 223.454,121.780 223.729,121.957 223.729 C 122.135 223.729,122.808 224.465,123.453 225.365 C 124.098 226.265,124.940 227.292,125.324 227.647 C 125.708 228.002,126.022 228.522,126.022 228.802 C 126.022 229.083,126.291 229.312,126.620 229.312 C 126.949 229.312,127.218 229.483,127.218 229.693 C 127.218 229.902,127.675 230.530,128.233 231.089 C 128.792 231.647,129.420 232.104,129.629 232.104 C 129.839 232.104,130.010 232.361,130.010 232.675 C 130.010 232.989,130.369 233.360,130.808 233.500 C 131.246 233.639,131.605 234.010,131.605 234.324 C 131.605 234.638,131.775 234.895,131.983 234.895 C 132.533 234.895,134.397 236.702,134.397 237.234 C 134.397 237.483,134.568 237.687,134.778 237.687 C 135.459 237.687,137.956 239.504,140.544 241.883 C 141.265 242.546,142.361 243.353,142.980 243.677 C 143.599 244.002,144.434 244.444,144.835 244.661 C 145.235 244.877,145.563 245.281,145.563 245.558 C 145.563 245.835,145.924 246.062,146.365 246.062 C 146.806 246.062,147.474 246.421,147.849 246.859 C 148.225 247.298,148.767 247.657,149.054 247.657 C 149.341 247.657,149.680 247.926,149.806 248.255 C 149.932 248.584,150.377 248.853,150.794 248.853 C 151.212 248.853,151.860 249.212,152.236 249.651 C 152.612 250.090,153.333 250.449,153.840 250.449 C 154.346 250.449,154.864 250.718,154.990 251.047 C 155.117 251.376,155.651 251.645,156.178 251.645 C 156.705 251.645,157.444 252.004,157.819 252.443 C 158.201 252.889,158.996 253.240,159.623 253.240 C 160.251 253.240,160.844 253.503,160.972 253.838 C 161.114 254.207,161.720 254.437,162.552 254.437 C 163.470 254.437,164.061 254.692,164.400 255.234 C 164.755 255.804,165.330 256.032,166.410 256.032 C 167.385 256.032,168.003 256.244,168.151 256.630 C 168.283 256.973,168.878 257.228,169.547 257.228 C 170.189 257.228,171.381 257.529,172.196 257.897 C 173.785 258.612,177.702 259.406,182.851 260.055 C 184.606 260.277,187.392 260.718,189.042 261.036 C 190.692 261.355,193.743 261.615,195.822 261.616 L 199.601 261.616 199.486 253.440 L 199.370 245.264 197.891 245.261 C 197.077 245.260,195.155 245.125,193.619 244.962 L 190.828 244.666 195.409 244.467 C 199.169 244.303,200.013 244.154,200.112 243.636 C 200.207 243.136,199.964 243.044,198.945 243.194 C 196.046 243.619,183.357 241.729,177.667 240.024 C 171.318 238.121,165.370 235.574,160.455 232.653 C 155.110 229.476,153.123 228.049,147.029 223.003 C 140.586 217.669,129.855 203.508,128.216 198.178 C 128.052 197.645,127.774 197.026,127.597 196.803 C 127.104 196.182,124.430 189.482,123.779 187.238 C 121.831 180.525,121.582 179.251,120.427 170.090 C 119.953 166.328,119.966 159.507,120.454 156.331 C 120.673 154.905,121.044 152.124,121.277 150.151 C 121.510 148.177,121.842 146.382,122.015 146.163 C 122.188 145.943,122.455 145.045,122.608 144.167 C 123.218 140.692,127.165 130.188,128.827 127.617 C 129.040 127.288,129.400 126.587,129.626 126.059 C 129.852 125.531,130.570 124.311,131.220 123.347 C 131.871 122.384,132.403 121.514,132.403 121.414 C 132.403 121.186,135.721 116.381,137.345 114.257 C 141.492 108.833,148.592 102.280,155.334 97.654 C 158.148 95.723,162.970 92.921,163.479 92.921 C 163.715 92.921,163.908 92.742,163.908 92.522 C 163.908 92.303,164.099 92.124,164.331 92.124 C 164.564 92.124,166.280 91.406,168.144 90.528 C 170.008 89.651,171.808 88.933,172.145 88.933 C 172.483 88.933,173.235 88.680,173.817 88.371 C 177.910 86.199,197.590 82.923,199.475 84.101 C 200.179 84.540,200.247 84.496,200.130 83.672 C 200.005 82.786,199.832 82.744,195.414 82.552 L 190.828 82.353 193.619 82.057 C 195.155 81.894,197.077 81.759,197.891 81.758 L 199.370 81.755 199.486 73.579 L 199.601 65.403 196.012 65.455 C 194.038 65.484,191.615 65.739,190.628 66.022 M119.140 166.800 C 119.066 168.609,119.006 167.129,119.006 163.509 C 119.006 159.890,119.066 158.410,119.140 160.219 C 119.214 162.029,119.214 164.990,119.140 166.800 M166.865 289.332 C 166.865 293.280,166.925 294.841,166.997 292.801 C 167.070 290.761,167.069 287.531,166.997 285.623 C 166.924 283.715,166.864 285.384,166.865 289.332 M182.836 300.100 C 182.836 309.970,182.888 313.951,182.951 308.946 C 183.014 303.941,183.014 295.865,182.951 291.000 C 182.887 286.134,182.835 290.229,182.836 300.100 M262.712 284.240 C 263.644 284.324,265.169 284.324,266.102 284.240 C 267.034 284.156,266.271 284.088,264.407 284.088 C 262.542 284.088,261.780 284.156,262.712 284.240 M135.771 299.900 C 135.771 306.810,135.825 309.636,135.892 306.181 C 135.958 302.727,135.958 297.074,135.892 293.619 C 135.825 290.165,135.771 292.991,135.771 299.900 M241.855 302.493 C 241.856 310.608,241.909 313.872,241.974 309.745 C 242.038 305.618,242.038 298.978,241.973 294.989 C 241.908 291.000,241.855 294.377,241.855 302.493 M229.890 303.091 C 229.890 310.658,229.944 313.754,230.009 309.970 C 230.075 306.186,230.075 299.995,230.009 296.211 C 229.944 292.428,229.890 295.523,229.890 303.091 M170.588 301.392 C 171.959 301.470,174.202 301.470,175.573 301.392 C 176.944 301.314,175.823 301.250,173.081 301.250 C 170.339 301.250,169.217 301.314,170.588 301.392 M166.867 310.070 C 166.867 314.457,166.925 316.306,166.997 314.179 C 167.069 312.052,167.069 308.463,166.998 306.203 C 166.926 303.943,166.868 305.683,166.867 310.070 M270.386 309.988 L 270.583 314.058 270.701 310.305 C 270.766 308.241,270.678 306.410,270.504 306.235 C 270.331 306.061,270.278 307.750,270.386 309.988 " stroke="none" fill="#3c8474" fill-rule="evenodd"></path><path id="path7" d="M196.411 63.705 C 189.394 64.047,174.188 66.479,178.514 66.567 C 179.419 66.585,180.863 66.352,181.725 66.048 C 187.184 64.122,207.595 64.087,216.750 65.989 C 218.285 66.307,220.439 66.749,221.535 66.969 C 226.833 68.033,227.994 68.324,228.975 68.838 C 229.557 69.142,230.410 69.392,230.871 69.392 C 231.331 69.392,232.377 69.751,233.196 70.189 C 234.014 70.628,235.091 70.987,235.587 70.987 C 236.084 70.987,236.491 71.163,236.491 71.378 C 236.491 71.593,236.984 71.887,237.587 72.031 C 238.190 72.174,239.133 72.525,239.681 72.810 C 240.229 73.095,242.383 74.159,244.467 75.175 C 246.550 76.190,248.794 77.368,249.452 77.793 C 250.110 78.218,251.186 78.838,251.844 79.170 C 252.502 79.502,253.917 80.402,254.987 81.169 C 260.360 85.020,262.702 86.760,263.609 87.575 C 264.158 88.067,265.491 89.247,266.571 90.197 C 267.652 91.147,269.537 92.976,270.759 94.261 C 271.981 95.547,273.654 97.283,274.477 98.119 C 275.299 98.954,275.972 99.748,275.972 99.882 C 275.972 100.017,276.510 100.653,277.168 101.296 C 277.827 101.939,278.365 102.580,278.365 102.721 C 278.365 102.861,278.816 103.540,279.368 104.230 C 279.920 104.919,280.506 105.663,280.671 105.882 C 281.349 106.785,284.169 111.094,284.450 111.657 C 284.616 111.990,285.194 112.981,285.734 113.858 C 286.959 115.847,291.164 124.409,292.099 126.820 C 292.482 127.807,293.037 129.153,293.331 129.811 C 293.626 130.469,293.991 131.635,294.143 132.403 C 294.295 133.170,294.665 134.153,294.966 134.585 C 295.267 135.018,295.513 135.920,295.513 136.590 C 295.513 137.260,295.770 138.175,296.084 138.623 C 296.397 139.070,296.784 140.591,296.943 142.002 C 297.239 144.619,298.255 147.752,298.293 146.162 C 298.336 144.353,295.266 133.048,293.565 128.750 C 291.960 124.696,291.219 123.000,289.763 120.040 C 287.351 115.140,285.250 111.431,283.210 108.475 C 280.051 103.894,279.765 103.493,279.514 103.290 C 279.378 103.180,278.187 101.745,276.868 100.100 C 267.063 87.872,250.116 75.671,235.892 70.600 C 235.234 70.365,234.337 70.013,233.898 69.818 C 233.460 69.623,231.844 69.077,230.309 68.604 C 228.774 68.132,226.686 67.488,225.669 67.173 C 224.653 66.858,223.481 66.600,223.064 66.600 C 222.648 66.600,221.326 66.330,220.127 66.000 C 215.941 64.848,201.544 63.455,196.411 63.705 M173.480 67.263 C 168.985 68.669,167.452 69.202,163.908 70.590 C 160.525 71.914,152.246 75.823,150.150 77.085 C 130.895 88.679,117.245 103.744,108.699 122.832 C 105.630 129.687,101.590 142.850,101.722 145.563 C 101.778 146.706,102.779 143.357,103.062 141.083 C 103.218 139.825,103.502 138.699,103.694 138.581 C 103.885 138.463,104.168 137.518,104.323 136.481 C 104.477 135.444,104.829 134.237,105.104 133.799 C 105.379 133.360,105.729 132.406,105.881 131.678 C 106.033 130.950,106.408 129.874,106.715 129.285 C 107.022 128.697,107.274 127.953,107.276 127.632 C 107.280 126.544,114.383 112.681,116.682 109.272 C 124.359 97.891,133.807 88.431,144.766 81.154 C 145.753 80.499,146.650 79.859,146.760 79.733 C 146.869 79.606,147.228 79.385,147.557 79.242 C 147.886 79.098,148.873 78.532,149.751 77.984 C 152.706 76.139,162.090 71.680,165.902 70.310 C 167.109 69.876,168.724 69.292,169.492 69.010 C 170.259 68.729,171.897 68.273,173.130 67.996 C 175.653 67.431,177.498 66.594,176.072 66.663 C 175.633 66.684,174.467 66.954,173.480 67.263 M100.924 149.751 C 100.057 155.197,99.897 170.791,100.661 175.274 C 100.998 177.248,101.344 179.312,101.430 179.860 C 101.516 180.409,101.610 180.050,101.639 179.063 C 101.668 178.076,101.427 175.653,101.102 173.679 C 100.303 168.815,100.312 157.810,101.119 153.133 C 101.461 151.155,101.685 148.777,101.618 147.849 C 101.515 146.429,101.405 146.731,100.924 149.751 M298.477 151.147 C 298.559 153.450,298.823 155.839,299.064 156.457 C 299.629 157.906,299.637 169.082,299.075 170.562 C 298.840 171.180,298.579 173.569,298.496 175.872 C 298.336 180.268,298.307 180.360,299.456 172.881 C 300.151 168.354,299.957 157.228,299.087 151.745 L 298.328 146.959 298.477 151.147 M297.606 181.701 C 297.350 182.553,297.027 184.148,296.886 185.244 C 296.746 186.341,296.436 187.597,296.198 188.036 C 295.960 188.475,295.634 189.551,295.475 190.429 C 295.144 192.245,294.057 195.504,293.260 197.071 C 292.964 197.653,292.722 198.416,292.722 198.767 C 292.722 199.118,292.363 200.074,291.924 200.893 C 291.486 201.711,291.127 202.683,291.127 203.052 C 291.127 203.420,290.992 203.782,290.828 203.855 C 290.663 203.928,289.589 205.872,288.441 208.175 C 285.380 214.315,279.658 223.370,277.873 224.898 C 277.485 225.230,277.168 225.628,277.168 225.783 C 277.168 226.718,266.248 237.544,262.055 240.766 C 260.826 241.710,259.224 242.974,258.495 243.574 C 257.766 244.175,256.960 244.740,256.703 244.832 C 256.446 244.923,255.427 245.562,254.439 246.252 C 253.451 246.942,252.373 247.639,252.044 247.800 C 251.715 247.962,250.728 248.527,249.850 249.056 C 248.973 249.585,246.012 251.108,243.270 252.441 C 240.528 253.773,237.777 255.127,237.156 255.448 C 236.535 255.769,235.725 256.032,235.356 256.032 C 234.986 256.032,234.014 256.391,233.196 256.830 C 232.377 257.268,231.342 257.627,230.895 257.627 C 230.447 257.627,229.684 257.877,229.198 258.182 C 228.713 258.487,227.418 258.863,226.321 259.017 C 225.224 259.171,224.121 259.466,223.870 259.673 C 223.618 259.880,222.030 260.205,220.340 260.394 C 218.650 260.584,217.070 260.936,216.829 261.177 C 216.588 261.418,215.369 261.615,214.120 261.615 C 211.929 261.615,201.651 262.593,199.202 263.034 C 198.544 263.152,196.481 263.058,194.616 262.825 C 192.752 262.591,189.252 262.219,186.839 261.997 C 184.427 261.775,181.776 261.329,180.949 261.006 C 180.122 260.683,178.776 260.418,177.958 260.416 C 177.140 260.415,176.011 260.174,175.450 259.881 C 174.889 259.588,173.701 259.232,172.811 259.090 C 171.921 258.947,170.675 258.561,170.043 258.232 C 169.411 257.902,168.524 257.631,168.072 257.630 C 167.621 257.628,166.903 257.364,166.477 257.042 C 166.051 256.720,165.461 256.450,165.165 256.443 C 164.110 256.419,151.456 250.327,149.007 248.665 C 148.190 248.110,147.446 247.657,147.354 247.657 C 145.456 247.657,133.413 237.652,126.402 230.251 C 119.702 223.178,107.278 203.167,107.278 199.447 C 107.278 199.160,107.017 198.359,106.698 197.667 C 105.825 195.778,104.868 193.015,104.466 191.226 C 103.946 188.914,102.929 186.301,102.909 187.225 C 102.899 187.656,103.138 188.733,103.438 189.618 C 103.739 190.502,104.308 192.303,104.701 193.619 C 105.385 195.906,105.993 197.570,107.763 201.994 C 115.606 221.605,131.055 238.911,151.078 250.517 C 152.905 251.576,154.487 252.443,154.592 252.443 C 154.698 252.443,156.075 253.045,157.652 253.782 C 159.228 254.518,161.505 255.529,162.712 256.027 C 163.918 256.526,165.264 257.085,165.703 257.270 C 169.077 258.691,178.786 261.383,182.253 261.860 C 183.021 261.965,185.533 262.349,187.836 262.712 C 193.091 263.540,203.879 263.523,209.987 262.677 C 212.391 262.343,215.075 261.978,215.952 261.865 C 217.689 261.640,223.541 260.415,226.720 259.610 C 228.750 259.096,232.091 257.941,234.357 256.969 C 235.049 256.673,235.828 256.431,236.090 256.431 C 236.352 256.431,237.043 256.175,237.625 255.863 C 238.208 255.551,240.780 254.297,243.343 253.075 C 271.328 239.734,290.930 214.908,297.729 184.194 C 298.454 180.915,298.368 179.156,297.606 181.701 M101.743 181.655 C 101.736 182.094,101.979 183.350,102.284 184.447 C 102.801 186.311,102.837 186.350,102.834 185.045 C 102.830 183.552,101.765 180.243,101.743 181.655 M138.584 279.364 L 137.388 279.927 138.584 279.645 C 140.147 279.275,143.899 279.282,145.165 279.657 C 145.919 279.880,145.870 279.812,144.965 279.376 C 143.439 278.641,140.132 278.634,138.584 279.364 M234.937 279.172 C 234.412 279.396,234.082 279.679,234.205 279.802 C 234.328 279.924,234.829 279.810,235.318 279.548 C 236.202 279.075,238.738 279.192,240.279 279.775 C 240.889 280.006,240.973 279.964,240.635 279.597 C 240.044 278.955,236.135 278.663,234.937 279.172 M179.960 280.235 C 180.344 280.335,180.972 280.335,181.356 280.235 C 181.740 280.135,181.426 280.053,180.658 280.053 C 179.890 280.053,179.576 280.135,179.960 280.235 M195.718 280.242 C 196.214 280.338,196.931 280.334,197.313 280.234 C 197.694 280.134,197.288 280.056,196.411 280.061 C 195.533 280.065,195.221 280.147,195.718 280.242 M259.739 280.257 C 261.449 280.332,264.141 280.331,265.721 280.256 C 267.301 280.180,265.902 280.119,262.612 280.120 C 259.322 280.120,258.029 280.182,259.739 280.257 M133.413 281.953 C 132.542 282.809,131.914 283.562,132.017 283.629 C 132.119 283.695,132.995 282.986,133.963 282.054 C 134.931 281.122,135.559 280.368,135.359 280.378 C 135.159 280.389,134.283 281.098,133.413 281.953 M148.554 280.969 C 148.993 281.290,149.756 281.931,150.249 282.394 C 150.743 282.856,151.147 283.116,151.147 282.971 C 151.147 282.558,148.624 280.357,148.166 280.372 C 147.941 280.379,148.116 280.647,148.554 280.969 M162.393 280.837 C 162.034 281.196,161.914 285.936,161.914 299.711 L 161.914 318.106 162.837 318.973 C 164.012 320.077,166.032 320.110,167.099 319.043 C 167.843 318.299,167.896 317.714,167.896 310.297 C 167.896 302.654,167.927 302.342,168.700 302.168 C 169.369 302.018,169.352 301.997,168.600 302.041 C 167.697 302.094,167.697 302.099,167.589 310.048 C 167.460 319.514,166.611 321.210,163.199 318.821 L 162.313 318.200 162.313 300.051 C 162.313 288.303,162.459 281.630,162.726 281.130 C 163.198 280.248,163.084 280.147,162.393 280.837 M167.019 280.837 C 167.358 281.177,167.498 283.553,167.498 288.989 C 167.498 293.210,167.632 296.746,167.797 296.848 C 168.041 297.000,167.820 280.785,167.573 280.459 C 167.531 280.404,167.282 280.359,167.019 280.359 C 166.647 280.359,166.647 280.465,167.019 280.837 M209.554 280.859 C 209.448 281.134,209.411 288.088,209.472 296.312 L 209.581 311.266 209.676 296.045 C 209.749 284.314,209.885 280.778,210.269 280.623 C 210.660 280.465,210.657 280.415,210.257 280.390 C 209.976 280.373,209.659 280.584,209.554 280.859 M214.058 280.788 C 214.442 281.195,214.556 285.599,214.556 299.993 C 214.556 320.468,214.649 319.720,212.238 318.690 L 211.167 318.232 212.108 319.036 C 213.304 320.057,213.540 320.045,214.428 318.917 C 215.438 317.633,215.179 280.754,214.158 280.442 C 213.675 280.294,213.656 280.361,214.058 280.788 M243.547 281.456 C 244.231 282.059,244.981 282.911,245.214 283.350 C 245.448 283.789,245.644 283.929,245.651 283.663 C 245.667 283.030,243.318 280.359,242.745 280.359 C 242.502 280.359,242.863 280.852,243.547 281.456 M255.899 280.625 C 255.473 281.050,255.586 314.878,256.017 316.011 C 256.512 317.314,259.524 320.240,260.367 320.237 C 260.728 320.236,260.364 319.836,259.552 319.340 C 258.746 318.848,257.669 317.911,257.159 317.258 L 256.231 316.072 256.231 298.215 C 256.231 288.394,256.216 280.359,256.198 280.359 C 256.180 280.359,256.045 280.479,255.899 280.625 M178.264 289.014 C 178.155 293.445,178.204 296.931,178.374 296.762 C 178.543 296.592,178.633 292.966,178.572 288.705 L 178.463 280.957 178.264 289.014 M228.615 281.954 C 228.704 282.283,229.211 282.585,229.742 282.626 C 230.504 282.684,230.539 282.653,229.910 282.480 C 229.472 282.359,228.964 282.057,228.783 281.808 C 228.566 281.509,228.508 281.559,228.615 281.954 M140.883 283.836 C 141.489 283.927,142.386 283.925,142.877 283.830 C 143.367 283.735,142.871 283.660,141.775 283.663 C 140.678 283.666,140.277 283.744,140.883 283.836 M151.172 283.749 C 151.172 283.968,151.435 284.496,151.757 284.922 C 152.079 285.347,152.343 285.516,152.343 285.297 C 152.343 285.078,152.079 284.550,151.757 284.124 C 151.435 283.698,151.172 283.529,151.172 283.749 M235.071 284.135 C 234.645 284.457,234.486 284.726,234.716 284.733 C 234.946 284.740,235.305 284.579,235.513 284.375 C 235.722 284.172,236.520 283.931,237.288 283.841 L 238.684 283.677 237.265 283.613 C 236.484 283.578,235.497 283.813,235.071 284.135 M138.086 284.741 C 137.373 285.176,136.790 285.714,136.790 285.936 C 136.790 286.159,137.119 286.027,137.523 285.643 C 137.926 285.259,138.599 284.731,139.018 284.470 C 139.437 284.209,139.691 283.985,139.581 283.973 C 139.472 283.961,138.799 284.307,138.086 284.741 M131.258 286.103 C 130.562 288.866,130.704 311.995,131.430 314.058 C 131.738 314.935,131.875 315.204,131.734 314.656 C 131.259 312.807,131.124 289.361,131.574 286.925 C 132.089 284.138,131.886 283.610,131.258 286.103 M146.347 285.942 C 147.112 287.263,147.156 288.007,147.157 299.820 C 147.159 312.982,147.040 313.934,145.264 315.058 C 144.792 315.357,144.760 315.450,145.165 315.346 C 147.358 314.783,147.557 313.482,147.555 299.742 L 147.553 286.939 146.546 285.743 L 145.538 284.546 146.347 285.942 M245.709 285.145 C 245.727 285.474,245.886 286.191,246.062 286.740 L 246.381 287.737 246.415 286.740 C 246.433 286.191,246.274 285.474,246.062 285.145 C 245.718 284.613,245.679 284.613,245.709 285.145 M262.923 285.039 C 263.972 285.122,265.587 285.121,266.513 285.037 C 267.438 284.954,266.580 284.886,264.606 284.887 C 262.632 284.889,261.875 284.957,262.923 285.039 M240.786 299.136 C 240.845 306.685,240.946 313.759,241.011 314.855 C 241.076 315.952,241.151 310.479,241.179 302.692 C 241.207 294.905,241.106 287.832,240.954 286.972 C 240.802 286.113,240.726 291.587,240.786 299.136 M152.522 299.900 C 152.522 307.248,152.576 310.254,152.641 306.580 C 152.707 302.906,152.707 296.894,152.641 293.220 C 152.576 289.546,152.522 292.552,152.522 299.900 M136.569 299.900 C 136.569 307.029,136.623 309.945,136.689 306.381 C 136.755 302.817,136.755 296.984,136.689 293.420 C 136.623 289.855,136.569 292.772,136.569 299.900 M177.567 302.146 C 178.202 302.333,178.266 303.085,178.278 310.398 C 178.287 316.457,178.421 318.617,178.820 319.143 C 179.780 320.407,183.450 319.900,183.450 318.502 C 183.450 318.293,183.121 318.419,182.720 318.782 C 181.845 319.574,179.732 319.650,179.120 318.913 C 178.841 318.576,178.642 315.426,178.573 310.244 C 178.469 302.438,178.432 302.101,177.667 302.022 C 177.047 301.958,177.025 301.986,177.567 302.146 M267.339 305.082 C 266.868 305.272,266.368 305.612,266.229 305.838 C 266.090 306.063,266.475 305.987,267.086 305.669 C 270.406 303.937,271.340 305.185,271.111 311.048 C 271.012 313.581,271.057 315.115,271.211 314.457 C 272.737 307.934,270.957 303.622,267.339 305.082 M193.911 313.460 C 193.911 314.227,193.993 314.541,194.093 314.158 C 194.194 313.774,194.194 313.146,194.093 312.762 C 193.993 312.378,193.911 312.692,193.911 313.460 M199.018 313.260 C 199.019 313.480,199.388 314.108,199.836 314.656 C 200.378 315.318,200.513 315.385,200.240 314.855 C 199.567 313.555,199.015 312.833,199.018 313.260 M136.866 313.887 C 137.027 314.370,138.784 315.733,138.784 315.375 C 138.784 315.278,138.314 314.791,137.741 314.292 C 137.168 313.794,136.774 313.611,136.866 313.887 M206.580 314.457 C 205.837 315.005,205.398 315.447,205.605 315.439 C 206.006 315.424,208.530 313.465,208.153 313.462 C 208.031 313.461,207.324 313.908,206.580 314.457 M260.818 313.735 C 260.818 314.564,262.741 315.917,263.670 315.740 C 264.542 315.574,264.533 315.559,263.538 315.508 C 262.905 315.476,262.134 315.026,261.644 314.403 C 261.189 313.825,260.818 313.524,260.818 313.735 M140.270 315.741 C 140.978 315.830,142.234 315.831,143.062 315.745 C 143.889 315.658,143.310 315.586,141.775 315.585 C 140.239 315.583,139.562 315.653,140.270 315.741 M201.894 315.739 C 202.498 315.831,203.485 315.831,204.088 315.739 C 204.691 315.648,204.197 315.573,202.991 315.573 C 201.785 315.573,201.291 315.648,201.894 315.739 M133.202 317.586 C 134.328 318.870,136.799 320.256,137.870 320.205 C 138.340 320.182,138.235 320.065,137.564 319.861 C 136.016 319.392,134.722 318.657,133.401 317.499 L 132.206 316.451 133.202 317.586 M149.964 317.632 C 149.457 318.172,148.080 319.012,146.904 319.500 C 145.068 320.261,144.773 320.531,144.820 321.409 C 144.871 322.378,144.884 322.383,145.050 321.514 C 145.154 320.972,145.663 320.436,146.292 320.207 C 148.273 319.486,149.747 318.568,150.467 317.607 C 151.395 316.369,151.139 316.381,149.964 317.632 M208.036 318.655 C 206.752 319.526,205.868 320.239,206.071 320.239 C 206.274 320.239,207.324 319.610,208.404 318.841 C 209.485 318.071,210.603 317.531,210.888 317.640 C 211.174 317.748,211.298 317.660,211.164 317.443 C 210.796 316.849,210.562 316.939,208.036 318.655 M195.414 317.624 C 195.414 318.057,198.740 320.239,199.362 320.214 C 199.742 320.199,199.601 320.030,199.015 319.796 C 198.473 319.579,197.441 318.953,196.722 318.405 C 196.002 317.856,195.414 317.505,195.414 317.624 M230.240 318.452 C 229.163 319.681,227.248 319.770,226.122 318.644 C 225.683 318.205,225.324 317.998,225.324 318.183 C 225.324 320.261,229.806 320.303,230.912 318.236 C 231.470 317.194,231.291 317.251,230.240 318.452 M240.831 318.136 C 241.739 319.876,244.606 320.463,245.740 319.143 C 246.841 317.860,247.004 317.234,245.947 318.345 C 245.247 319.081,244.497 319.442,243.669 319.442 C 242.839 319.442,242.096 319.083,241.401 318.345 C 240.545 317.437,240.447 317.401,240.831 318.136 M267.398 319.442 C 266.740 319.877,266.406 320.235,266.656 320.237 C 267.092 320.239,269.203 318.682,268.794 318.660 C 268.684 318.654,268.056 319.006,267.398 319.442 M139.497 321.336 C 139.920 321.939,140.366 322.702,140.490 323.031 C 140.641 323.433,140.725 323.460,140.746 323.111 C 140.793 322.338,139.623 320.239,139.145 320.239 C 138.916 320.239,139.075 320.733,139.497 321.336 M201.702 320.528 C 202.419 320.617,203.496 320.615,204.095 320.524 C 204.694 320.433,204.108 320.361,202.792 320.363 C 201.476 320.365,200.985 320.440,201.702 320.528 M262.512 320.525 C 263.116 320.616,264.103 320.616,264.706 320.525 C 265.309 320.434,264.816 320.359,263.609 320.359 C 262.403 320.359,261.909 320.434,262.512 320.525 M140.832 325.694 C 140.715 327.560,144.095 328.972,145.196 327.517 C 145.645 326.924,145.641 326.894,145.165 327.318 C 143.928 328.421,141.389 327.433,141.059 325.719 C 140.887 324.830,140.886 324.830,140.832 325.694 " stroke="none" fill="#313c3c" fill-rule="evenodd"></path><path id="path8" d="M191.825 63.388 C 189.521 63.510,187.412 63.756,187.137 63.934 C 186.861 64.111,185.097 64.416,183.215 64.610 C 181.333 64.804,179.584 65.127,179.328 65.328 C 179.073 65.529,177.931 65.798,176.791 65.926 C 175.651 66.054,174.180 66.438,173.521 66.778 C 172.862 67.119,171.810 67.398,171.183 67.398 C 170.556 67.398,169.694 67.661,169.269 67.983 C 168.843 68.305,168.133 68.575,167.691 68.582 C 167.249 68.589,166.218 68.953,165.399 69.392 C 164.581 69.831,163.564 70.189,163.141 70.189 C 162.717 70.189,162.101 70.459,161.772 70.788 C 161.443 71.117,160.951 71.386,160.679 71.386 C 160.143 71.386,151.559 75.626,148.953 77.178 C 148.076 77.700,147.089 78.262,146.760 78.426 C 134.656 84.460,117.954 102.894,109.596 119.442 C 107.769 123.061,104.802 130.651,103.985 133.799 C 103.757 134.676,103.328 135.959,103.032 136.651 C 102.735 137.342,102.493 138.367,102.493 138.930 C 102.493 139.492,102.236 140.721,101.922 141.661 C 101.608 142.601,101.168 144.716,100.944 146.361 C 100.720 148.006,100.360 150.249,100.143 151.346 C 99.630 153.937,99.630 173.083,100.143 175.673 C 100.360 176.770,100.710 179.013,100.920 180.658 C 101.130 182.303,101.569 184.444,101.897 185.415 C 102.225 186.386,102.493 187.615,102.493 188.146 C 102.493 188.677,102.735 189.677,103.032 190.368 C 103.328 191.060,103.757 192.343,103.985 193.220 C 104.213 194.098,104.629 195.444,104.911 196.211 C 106.557 200.702,107.470 203.012,108.296 204.786 C 108.807 205.882,109.419 207.228,109.654 207.777 C 109.890 208.325,110.492 209.492,110.993 210.369 C 111.493 211.246,112.458 212.973,113.138 214.207 C 114.241 216.207,118.312 222.419,118.856 222.931 C 118.972 223.041,120.218 224.566,121.624 226.321 C 131.125 238.179,143.561 247.981,156.730 253.990 C 158.814 254.940,161.072 255.993,161.749 256.329 C 162.425 256.665,163.210 256.863,163.493 256.768 C 163.776 256.674,163.223 256.267,162.263 255.863 C 161.304 255.460,159.228 254.525,157.652 253.786 C 156.075 253.047,154.698 252.443,154.592 252.443 C 154.289 252.443,148.062 248.788,144.766 246.675 C 133.318 239.338,121.365 226.801,113.764 214.158 C 112.504 212.063,108.681 204.290,107.683 201.795 C 107.200 200.588,106.623 199.153,106.400 198.604 C 104.724 194.474,102.163 185.041,101.528 180.658 C 101.416 179.890,101.037 177.557,100.684 175.474 C 99.841 170.488,100.055 154.892,101.048 148.953 C 106.305 117.534,122.636 93.632,150.150 77.085 C 153.396 75.133,161.451 71.444,166.700 69.505 C 171.911 67.581,179.497 65.658,184.447 65.007 C 185.763 64.833,188.455 64.481,190.429 64.223 C 194.924 63.636,202.816 63.631,207.777 64.212 C 209.860 64.457,213.001 64.823,214.756 65.028 C 216.510 65.232,218.927 65.670,220.127 66.000 C 221.326 66.330,222.648 66.600,223.064 66.600 C 223.481 66.600,224.653 66.858,225.669 67.173 C 226.686 67.488,228.774 68.132,230.309 68.604 C 231.844 69.077,233.460 69.623,233.898 69.818 C 234.337 70.013,235.234 70.365,235.892 70.600 C 250.116 75.671,267.063 87.872,276.868 100.100 C 278.187 101.745,279.378 103.180,279.514 103.290 C 279.765 103.493,280.051 103.894,283.210 108.475 C 285.250 111.431,287.351 115.140,289.763 120.040 C 291.219 123.000,291.960 124.696,293.565 128.750 C 298.443 141.075,301.195 161.478,299.490 172.682 C 299.273 174.108,298.912 176.710,298.688 178.465 C 294.704 209.723,273.051 238.913,243.343 253.075 C 240.780 254.297,238.208 255.551,237.625 255.863 C 237.043 256.175,236.352 256.431,236.090 256.431 C 235.828 256.431,235.049 256.673,234.357 256.969 C 232.091 257.941,228.750 259.096,226.720 259.610 C 223.541 260.415,217.689 261.640,215.952 261.865 C 215.075 261.978,212.391 262.343,209.987 262.677 C 203.879 263.523,193.091 263.540,187.836 262.712 C 185.533 262.349,183.021 261.965,182.253 261.860 C 180.855 261.667,176.394 260.600,172.283 259.473 C 169.640 258.749,166.825 257.770,165.604 257.150 C 165.111 256.900,164.600 256.802,164.470 256.932 C 164.106 257.296,166.531 258.425,167.677 258.425 C 168.236 258.425,168.694 258.579,168.694 258.768 C 168.694 259.091,171.395 259.927,175.474 260.866 C 176.461 261.093,178.166 261.523,179.262 261.820 C 186.888 263.890,204.301 264.507,212.762 263.009 C 214.516 262.698,217.029 262.269,218.345 262.057 C 222.691 261.355,230.350 259.417,231.107 258.827 C 231.326 258.657,232.134 258.383,232.901 258.220 C 233.669 258.057,234.651 257.678,235.084 257.377 C 235.516 257.076,236.207 256.830,236.617 256.830 C 237.028 256.830,237.841 256.576,238.423 256.265 C 239.005 255.955,241.976 254.484,245.024 252.997 C 248.073 251.510,251.177 249.879,251.922 249.374 C 252.666 248.868,253.366 248.455,253.476 248.455 C 253.801 248.455,260.526 243.769,261.621 242.780 C 262.172 242.282,263.698 240.995,265.011 239.921 C 276.235 230.737,287.621 215.321,292.580 202.592 C 293.136 201.167,293.844 199.434,294.153 198.743 C 294.463 198.052,294.716 197.309,294.716 197.092 C 294.716 196.875,295.071 195.915,295.505 194.959 C 295.939 194.003,296.297 192.673,296.302 192.004 C 296.307 191.335,296.481 190.617,296.688 190.409 C 297.149 189.945,298.172 185.494,298.746 181.456 C 298.979 179.811,299.380 177.747,299.635 176.869 C 300.274 174.675,300.274 152.344,299.635 150.150 C 299.380 149.272,298.979 147.208,298.746 145.563 C 298.172 141.525,297.149 137.074,296.688 136.610 C 296.481 136.402,296.311 135.862,296.311 135.410 C 296.311 134.959,295.759 133.066,295.085 131.203 C 294.411 129.340,293.711 127.368,293.530 126.820 C 291.589 120.955,284.936 109.055,280.376 103.290 C 275.572 97.219,269.496 90.825,265.008 87.118 C 263.693 86.033,262.414 84.965,262.165 84.746 C 261.916 84.526,261.307 84.078,260.811 83.749 C 260.315 83.420,259.082 82.515,258.070 81.739 C 254.438 78.951,249.299 76.038,242.273 72.784 C 237.483 70.566,236.893 70.312,234.297 69.356 C 232.981 68.872,231.339 68.233,230.648 67.936 C 229.956 67.640,228.871 67.398,228.235 67.398 C 227.599 67.398,226.897 67.216,226.674 66.993 C 226.142 66.461,222.044 65.595,212.562 64.010 C 208.739 63.371,198.123 63.053,191.825 63.388 M137.188 279.362 C 136.570 280.107,136.753 280.109,138.439 279.378 C 139.724 278.820,139.736 278.794,138.733 278.779 C 138.156 278.771,137.461 279.033,137.188 279.362 M145.111 279.378 C 146.796 280.109,146.979 280.107,146.361 279.362 C 146.088 279.033,145.393 278.771,144.817 278.779 C 143.813 278.794,143.826 278.820,145.111 279.378 M233.699 279.362 C 233.074 280.115,233.310 280.116,234.750 279.364 C 235.740 278.848,235.779 278.768,235.044 278.766 C 234.577 278.765,233.972 279.033,233.699 279.362 M239.482 279.034 C 239.920 279.152,240.533 279.453,240.843 279.704 C 241.285 280.062,241.364 280.031,241.211 279.561 C 241.103 279.232,240.491 278.931,239.850 278.892 C 239.117 278.847,238.980 278.900,239.482 279.034 M133.746 281.073 C 132.042 282.549,130.805 284.702,130.837 286.142 C 130.859 287.146,130.958 287.018,131.458 285.344 C 132.028 283.434,134.153 280.820,135.593 280.257 C 136.125 280.049,136.125 280.021,135.593 280.008 C 135.264 279.999,134.433 280.479,133.746 281.073 M147.956 280.243 C 148.285 280.364,148.868 280.737,149.252 281.071 C 150.120 281.827,150.177 281.440,149.323 280.587 C 148.979 280.242,148.396 279.974,148.027 279.992 C 147.481 280.017,147.468 280.063,147.956 280.243 M162.142 280.587 C 161.590 281.139,161.515 283.440,161.515 299.859 L 161.515 318.505 162.438 319.372 C 163.600 320.464,166.709 320.591,167.548 319.581 C 168.148 318.861,168.768 302.291,168.195 302.293 C 168.031 302.293,167.896 305.882,167.896 310.269 C 167.896 317.714,167.843 318.298,167.099 319.043 C 165.986 320.156,163.885 320.093,162.777 318.913 L 161.906 317.986 162.010 299.483 L 162.114 280.981 163.111 280.476 C 163.793 280.131,163.897 279.970,163.438 279.966 C 163.070 279.963,162.487 280.242,162.142 280.587 M166.600 280.242 C 167.094 280.337,167.533 280.447,167.576 280.486 C 167.620 280.526,167.754 284.237,167.875 288.734 L 168.096 296.909 172.982 296.928 L 177.868 296.948 173.081 296.817 L 168.295 296.685 168.295 288.801 C 168.295 280.535,168.168 279.905,166.520 280.014 C 165.781 280.064,165.789 280.085,166.600 280.242 M182.552 280.371 L 183.450 280.732 183.450 299.808 C 183.450 314.113,183.330 319.003,182.971 319.362 C 182.227 320.106,179.200 319.975,178.897 319.185 C 178.758 318.825,178.534 318.641,178.398 318.777 C 177.758 319.417,179.273 320.239,181.092 320.239 C 183.955 320.239,183.848 321.027,183.848 299.807 C 183.848 280.325,183.816 279.922,182.273 279.985 C 181.894 280.001,182.002 280.150,182.552 280.371 M193.768 280.619 C 193.078 281.449,192.724 311.423,193.390 312.566 C 193.668 313.044,193.798 308.196,193.806 297.029 C 193.818 281.999,193.870 280.767,194.516 280.391 C 194.900 280.167,195.012 279.979,194.765 279.972 C 194.517 279.966,194.069 280.257,193.768 280.619 M198.305 280.391 C 198.949 280.766,199.010 282.050,199.098 297.029 L 199.193 313.260 199.302 297.155 C 199.411 281.040,199.331 279.938,198.057 279.972 C 197.810 279.979,197.921 280.167,198.305 280.391 M209.452 280.439 C 209.098 280.793,208.973 284.529,208.973 294.776 C 208.973 310.719,208.807 312.083,206.656 313.856 C 204.740 315.436,201.395 315.591,200.140 314.158 L 199.354 313.260 200.022 314.357 C 200.958 315.894,204.541 315.961,206.549 314.480 C 209.271 312.472,209.152 313.242,209.372 296.129 L 209.571 280.594 210.568 280.317 C 211.403 280.085,211.433 280.033,210.748 280.000 C 210.298 279.978,209.715 280.175,209.452 280.439 M213.958 280.327 C 215.158 280.795,215.604 317.422,214.428 318.917 C 213.475 320.127,213.110 320.084,211.721 318.597 L 210.560 317.354 208.602 318.697 C 207.526 319.436,206.804 320.098,206.999 320.169 C 207.193 320.239,208.076 319.716,208.960 319.005 C 209.844 318.295,210.613 317.788,210.668 317.880 C 210.723 317.971,210.966 318.405,211.208 318.843 C 211.988 320.258,213.595 320.532,214.750 319.447 L 215.753 318.505 215.753 299.859 C 215.753 279.946,215.749 279.908,213.830 279.988 C 213.298 280.010,213.324 280.080,213.958 280.327 M225.424 280.224 C 224.498 280.598,224.722 318.735,225.655 319.579 C 226.681 320.508,229.782 320.465,230.646 319.510 C 231.694 318.352,231.411 317.778,230.327 318.862 C 229.126 320.063,226.956 320.185,225.980 319.107 C 225.377 318.441,225.326 316.635,225.420 299.466 L 225.523 280.558 226.981 280.558 C 227.783 280.558,228.356 280.424,228.254 280.259 C 228.050 279.930,226.210 279.907,225.424 280.224 M231.144 280.800 C 230.552 281.265,229.741 281.552,229.325 281.443 C 228.802 281.306,228.639 281.415,228.786 281.800 C 229.019 282.406,230.508 282.573,230.508 281.993 C 230.508 281.795,231.092 281.260,231.805 280.804 C 232.517 280.347,232.901 279.971,232.656 279.967 C 232.411 279.963,231.731 280.338,231.144 280.800 M242.705 280.347 C 243.161 280.531,244.014 281.251,244.599 281.947 C 245.184 282.643,245.663 283.032,245.663 282.813 C 245.663 282.143,243.252 279.958,242.542 279.985 C 242.031 280.005,242.070 280.090,242.705 280.347 M255.496 280.689 C 253.587 282.799,254.822 317.131,256.830 317.772 C 257.252 317.907,257.194 317.700,256.630 317.066 C 255.470 315.761,255.155 281.296,256.295 280.462 C 256.673 280.186,256.796 279.960,256.569 279.960 C 256.341 279.960,255.859 280.288,255.496 280.689 M268.893 280.391 C 269.381 280.675,269.593 281.302,269.597 282.472 C 269.602 283.701,269.707 283.988,269.990 283.549 C 270.826 282.256,269.897 279.928,268.563 279.972 C 268.361 279.979,268.509 280.167,268.893 280.391 M151.167 283.051 C 151.660 283.873,152.198 285.085,152.362 285.743 L 152.660 286.939 152.701 285.834 C 152.723 285.226,152.269 284.015,151.692 283.142 C 150.362 281.132,149.976 281.065,151.167 283.051 M245.894 284.347 C 246.081 284.895,246.337 292.612,246.462 301.496 L 246.691 317.647 246.675 301.017 C 246.663 287.371,246.561 284.293,246.107 283.868 C 245.641 283.431,245.608 283.507,245.894 284.347 M138.483 284.817 C 136.722 285.905,136.751 285.621,136.883 300.499 L 137.000 313.659 137.094 300.062 C 137.198 285.070,137.024 286.069,139.781 284.612 C 140.439 284.265,140.708 283.988,140.379 283.997 C 140.050 284.007,139.197 284.375,138.483 284.817 M142.991 284.319 C 143.199 284.523,143.908 284.807,144.566 284.952 L 145.763 285.214 144.620 284.581 C 143.352 283.878,142.381 283.722,142.991 284.319 M235.512 284.316 C 235.387 284.519,234.794 284.797,234.193 284.935 C 233.119 285.180,231.258 287.139,232.098 287.139 C 232.334 287.139,232.636 286.855,232.769 286.509 C 232.902 286.162,233.929 285.459,235.050 284.946 C 236.171 284.433,236.785 283.999,236.414 283.981 C 236.043 283.963,235.638 284.114,235.512 284.316 M237.720 284.097 C 237.812 284.179,238.514 284.548,239.282 284.918 L 240.678 285.591 239.681 284.779 C 238.897 284.140,237.051 283.498,237.720 284.097 M260.910 299.149 C 260.820 312.986,260.839 313.379,261.644 314.403 C 262.580 315.592,264.401 315.824,265.204 314.855 C 265.547 314.442,265.562 314.257,265.253 314.257 C 265.007 314.257,264.806 314.437,264.806 314.656 C 264.806 314.875,264.310 315.055,263.705 315.055 C 261.505 315.055,261.435 314.608,261.209 299.103 L 261.002 284.945 260.910 299.149 M146.228 286.142 C 147.543 289.410,146.693 313.412,145.222 314.530 C 144.233 315.283,138.823 315.224,138.529 314.457 C 138.403 314.128,138.025 313.858,137.690 313.858 C 137.279 313.858,137.410 314.117,138.095 314.656 C 140.274 316.370,145.429 315.646,146.556 313.468 C 147.456 311.728,147.423 287.815,146.519 286.341 C 146.178 285.785,146.049 285.697,146.228 286.142 M231.159 288.770 C 231.021 289.463,230.946 296.244,230.993 303.838 L 231.079 317.647 231.292 302.692 C 231.410 294.467,231.484 287.686,231.458 287.623 C 231.433 287.561,231.298 288.077,231.159 288.770 M130.586 299.900 C 130.586 306.590,130.640 309.327,130.707 305.982 C 130.774 302.637,130.774 297.164,130.707 293.819 C 130.640 290.474,130.586 293.210,130.586 299.900 M240.659 302.692 C 240.659 310.917,240.712 314.282,240.777 310.169 C 240.842 306.057,240.842 299.327,240.777 295.214 C 240.712 291.102,240.659 294.467,240.659 302.692 M171.399 302.189 C 172.558 302.270,174.353 302.269,175.387 302.187 C 176.422 302.105,175.474 302.039,173.280 302.040 C 171.087 302.041,170.240 302.108,171.399 302.189 M266.224 305.173 C 265.747 305.854,265.621 306.988,265.681 310.059 L 265.759 314.058 265.980 309.881 C 266.219 305.368,266.615 304.708,269.093 304.692 C 271.452 304.676,272.412 310.301,270.998 315.852 C 270.832 316.502,270.960 316.382,271.364 315.508 C 272.321 313.436,272.235 306.294,271.239 305.146 C 270.167 303.910,267.097 303.927,266.224 305.173 M130.821 313.561 C 130.801 315.228,133.126 319.043,134.161 319.043 C 134.373 319.043,134.040 318.514,133.420 317.868 C 132.801 317.222,131.966 315.741,131.564 314.578 C 131.002 312.951,130.831 312.716,130.821 313.561 M152.403 313.850 C 152.308 315.413,149.974 318.480,148.178 319.400 C 147.266 319.867,146.872 320.231,147.274 320.234 C 149.175 320.248,152.919 315.820,152.624 313.906 L 152.462 312.861 152.403 313.850 M193.865 315.181 C 193.805 316.123,194.521 317.448,195.091 317.448 C 195.355 317.448,195.284 317.162,194.919 316.750 C 194.578 316.366,194.212 315.693,194.105 315.254 C 193.938 314.566,193.905 314.556,193.865 315.181 M268.906 318.675 C 267.984 319.535,267.357 320.237,267.513 320.233 C 267.987 320.223,271.001 317.537,270.785 317.316 C 270.674 317.203,269.829 317.815,268.906 318.675 M240.479 318.401 C 240.479 320.144,244.858 320.992,246.199 319.510 C 246.562 319.109,246.859 318.546,246.859 318.260 C 246.859 317.973,246.487 318.212,246.033 318.790 C 244.923 320.201,242.830 320.234,241.457 318.862 C 240.891 318.295,240.479 318.101,240.479 318.401 M134.796 319.463 C 134.796 319.948,135.787 320.374,136.423 320.162 C 136.674 320.078,136.411 319.796,135.838 319.535 C 135.184 319.237,134.796 319.210,134.796 319.463 M197.009 319.451 C 197.009 319.679,197.286 319.972,197.624 320.102 C 198.560 320.461,198.670 320.073,197.788 319.523 C 197.295 319.215,197.009 319.188,197.009 319.451 M137.891 320.521 C 138.387 320.617,139.073 321.237,139.416 321.900 C 139.758 322.563,140.135 323.009,140.252 322.892 C 140.721 322.423,138.710 320.240,137.859 320.294 C 136.999 320.347,136.999 320.350,137.891 320.521 M145.318 320.814 C 145.196 321.130,145.181 321.714,145.284 322.110 C 145.410 322.597,145.486 322.485,145.517 321.768 C 145.542 321.183,145.788 320.614,146.062 320.503 C 146.452 320.346,146.450 320.295,146.049 320.271 C 145.768 320.253,145.439 320.498,145.318 320.814 M200.301 320.905 C 201.980 321.515,203.708 321.520,205.110 320.919 C 206.097 320.497,205.794 320.439,202.620 320.437 C 199.382 320.436,199.141 320.485,200.301 320.905 M261.304 320.901 C 262.992 321.513,264.330 321.518,265.729 320.919 C 266.722 320.494,266.455 320.438,263.424 320.433 C 260.311 320.427,260.116 320.470,261.304 320.901 M145.759 324.661 C 146.057 327.862,144.141 329.208,141.851 327.406 C 141.104 326.819,140.781 326.136,140.670 324.914 L 140.518 323.230 140.449 324.871 C 140.400 326.007,140.633 326.836,141.205 327.563 C 143.032 329.885,147.230 328.207,146.357 325.504 C 146.165 324.912,145.914 324.068,145.798 323.629 C 145.683 323.190,145.665 323.655,145.759 324.661 " stroke="none" fill="#242a2a" fill-rule="evenodd"></path></g></svg>